%TF.GenerationSoftware,KiCad,Pcbnew,(6.0.11-0)*%
%TF.CreationDate,2024-05-30T12:39:56+08:00*%
%TF.ProjectId,tinyAVR-wristwatch,74696e79-4156-4522-9d77-726973747761,rev?*%
%TF.SameCoordinates,Original*%
%TF.FileFunction,Profile,NP*%
%FSLAX46Y46*%
G04 Gerber Fmt 4.6, Leading zero omitted, Abs format (unit mm)*
G04 Created by KiCad (PCBNEW (6.0.11-0)) date 2024-05-30 12:39:56*
%MOMM*%
%LPD*%
G01*
G04 APERTURE LIST*
%TA.AperFunction,Profile*%
%ADD10C,0.100000*%
%TD*%
G04 APERTURE END LIST*
D10*
X151000000Y-113000000D02*
G75*
G03*
X151000000Y-87000000I-11000000J13000000D01*
G01*
X147000000Y-83616117D02*
X133000000Y-83616117D01*
X133000000Y-116250000D02*
G75*
G03*
X131750000Y-117500000I0J-1250000D01*
G01*
X129000000Y-119250000D02*
G75*
G03*
X130500000Y-120750000I1500000J0D01*
G01*
X151000000Y-81000000D02*
X151000000Y-87000000D01*
X151000000Y-119250000D02*
X151000000Y-113000000D01*
X149500000Y-120750000D02*
X130500000Y-120750000D01*
X131750000Y-117500000D02*
G75*
G03*
X133000000Y-118750000I1250000J0D01*
G01*
X148250000Y-117500000D02*
G75*
G03*
X147000000Y-116250000I-1250000J0D01*
G01*
X147000000Y-118750000D02*
X133000000Y-118750000D01*
X129000000Y-119250000D02*
X129000000Y-113000000D01*
X151000000Y-81000000D02*
G75*
G03*
X149500000Y-79500000I-1500000J0D01*
G01*
X148249983Y-82366117D02*
G75*
G03*
X147000000Y-81116117I-1249983J17D01*
G01*
X133000000Y-116250000D02*
X147000000Y-116250000D01*
X149500000Y-79500000D02*
X130500000Y-79500000D01*
X133000000Y-81116100D02*
G75*
G03*
X131750000Y-82366117I0J-1250000D01*
G01*
X129000000Y-81000000D02*
X129000000Y-87000000D01*
X130500000Y-79500000D02*
G75*
G03*
X129000000Y-81000000I0J-1500000D01*
G01*
X129000000Y-87000000D02*
G75*
G03*
X129000000Y-113000000I11000000J-13000000D01*
G01*
X131749983Y-82366117D02*
G75*
G03*
X133000000Y-83616117I1250017J17D01*
G01*
X147000000Y-83616100D02*
G75*
G03*
X148250000Y-82366117I0J1250000D01*
G01*
X147000000Y-118750000D02*
G75*
G03*
X148250000Y-117500000I0J1250000D01*
G01*
X133000000Y-81116117D02*
X147000000Y-81116117D01*
X149500000Y-120750000D02*
G75*
G03*
X151000000Y-119250000I0J1500000D01*
G01*
M02*
