M48
; DRILL file {KiCad (6.0.11-0)} date 2024 May 30, Thursday 12:39:37
; FORMAT={-:-/ absolute / metric / decimal}
; #@! TF.CreationDate,2024-05-30T12:39:37+08:00
; #@! TF.GenerationSoftware,Kicad,Pcbnew,(6.0.11-0)
; #@! TF.FileFunction,MixedPlating,1,2
FMAT,2
METRIC
; #@! TA.AperFunction,Plated,PTH,ComponentDrill
T1C0.300
; #@! TA.AperFunction,Plated,PTH,ViaDrill
T2C0.400
%
G90
G05
T2
X126.0Y-104.0
X129.0Y-102.0
X131.0Y-86.0
X131.0Y-104.0
X131.0Y-114.0
X133.0Y-108.0
X135.0Y-94.5
X135.0Y-103.5
X135.817Y-113.183
X139.0Y-110.0
X140.0Y-100.0
X141.5Y-110.0
X145.0Y-94.5
X146.0Y-115.0
X147.0Y-108.0
X147.3Y-100.0
X148.0Y-105.0
X148.5Y-86.0
X149.0Y-114.0
X149.5Y-107.5
X152.0Y-95.75
X154.0Y-104.0
T1
G00X152.983Y-90.235
M15
G01X152.767Y-90.36
M16
G05
G00X153.139Y-109.565
M15
G01X152.923Y-109.44
M16
G05
G00X154.833Y-93.44
M15
G01X154.617Y-93.565
M16
G05
G00X154.989Y-106.36
M15
G01X154.773Y-106.235
M16
G05
T0
M30
