  0
SECTION
  2
HEADER
  9
$ANGBASE
  50
0.0
  9
$ANGDIR
  70
1
  9
$MEASUREMENT
  70
1
  0
ENDSEC
  0
SECTION
  2
TABLES
  0
TABLE
  2
LTYPE
  70
4
  0
LTYPE
  5
40F
  2
CONTINUOUS
  70
0
  3
Solid line
  72
65
  73
0
  40
0.0
  0
LTYPE
  5
410
  2
DASHDOT
 70
0
  3
Dash Dot ____ _ ____ _
 72
65
 73
4
 40
2.0
 49
1.25
 49
-0.25
 49
0.25
 49
-0.25
  0
LTYPE
  5
411
  2
DASHED
 70
0
  3
Dashed __ __ __ __ __
 72
65
 73
2
 40
0.75
 49
0.5
 49
-0.25
  0
LTYPE
  5
43B
  2
DOTTED
 70
0
  3
Dotted .  .  .  .
 72
65
 73
2
 40
0.2
 49
0.0
 49
-0.2
  0
ENDTAB
  0
TABLE
  2
STYLE
  70
4
  0
STYLE
  2
KICAD
  70
0
  40
0
  41
1
  42
1
  50
0
  71
0
  3
isocp.shx
  0
STYLE
  2
KICADB
  70
0
  40
0
  41
1
  42
1
  50
0
  71
0
  3
isocp.shx
  0
STYLE
  2
KICADI
  70
0
  40
0
  41
1
  42
1
  50
15
  71
0
  3
isocp.shx
  0
STYLE
  2
KICADBI
  70
0
  40
0
  41
1
  42
1
  50
15
  71
0
  3
isocp.shx
  0
ENDTAB
  0
TABLE
  2
LAYER
  70
1
  0
LAYER
  2
BLACK
  70
0
  62
7
  6
CONTINUOUS
  0
ENDTAB
  0
ENDSEC
  0
SECTION
  2
ENTITIES
0
ARC
8
BLACK
10
140
20
-100
40
17.0294
50
-49.7636
51
49.7636
0
LINE
8
BLACK
6
CONTINUOUS
10
147
20
-83.6161
11
133
21
-83.6161
0
ARC
8
BLACK
10
133
20
-117.5
40
1.25
50
90
51
180
0
ARC
8
BLACK
10
130.5
20
-119.25
40
1.5
50
-180
51
-90
0
LINE
8
BLACK
6
CONTINUOUS
10
151
20
-81
11
151
21
-87
0
LINE
8
BLACK
6
CONTINUOUS
10
151
20
-119.25
11
151
21
-113
0
LINE
8
BLACK
6
CONTINUOUS
10
149.5
20
-120.75
11
130.5
21
-120.75
0
ARC
8
BLACK
10
133
20
-117.5
40
1.25
50
-180
51
-90
0
ARC
8
BLACK
10
147
20
-117.5
40
1.25
50
-0
51
90
0
LINE
8
BLACK
6
CONTINUOUS
10
147
20
-118.75
11
133
21
-118.75
0
LINE
8
BLACK
6
CONTINUOUS
10
129
20
-119.25
11
129
21
-113
0
ARC
8
BLACK
10
149.5
20
-81
40
1.5
50
-0
51
90
0
ARC
8
BLACK
10
147
20
-82.3661
40
1.24998
50
-0.000779223
51
90
0
LINE
8
BLACK
6
CONTINUOUS
10
133
20
-116.25
11
147
21
-116.25
0
LINE
8
BLACK
6
CONTINUOUS
10
149.5
20
-79.5
11
130.5
21
-79.5
0
ARC
8
BLACK
10
133
20
-82.3661
40
1.25
50
-270
51
-179.999
0
LINE
8
BLACK
6
CONTINUOUS
10
129
20
-81
11
129
21
-87
0
ARC
8
BLACK
10
130.5
20
-81
40
1.5
50
90
51
180
0
ARC
8
BLACK
10
140
20
-100
40
17.0294
50
-229.764
51
-130.236
0
ARC
8
BLACK
10
133
20
-82.3661
40
1.25002
50
-179.999
51
-90
0
ARC
8
BLACK
10
147
20
-82.3661
40
1.25
50
-90
51
-0.000779223
0
ARC
8
BLACK
10
147
20
-117.5
40
1.25
50
-90
51
-0
0
LINE
8
BLACK
6
CONTINUOUS
10
133
20
-81.1161
11
147
21
-81.1161
0
ARC
8
BLACK
10
149.5
20
-119.25
40
1.5
50
-90
51
-0
0
LINE
8
BLACK
6
CONTINUOUS
10
152.725
20
-90.1479
11
153.025
21
-90.4479
0
LINE
8
BLACK
6
CONTINUOUS
10
153.025
20
-90.1479
11
152.725
21
-90.4479
0
LINE
8
BLACK
6
CONTINUOUS
10
152.908
20
-90.1054
11
152.692
21
-90.2304
0
LINE
8
BLACK
6
CONTINUOUS
10
153.058
20
-90.3653
11
152.842
21
-90.4903
0
ARC
8
BLACK
10
152.767
20
-90.3604
40
0.15
50
480
51
660
0
ARC
8
BLACK
10
152.983
20
-90.2354
40
0.15
50
300
51
480
0
LINE
8
BLACK
6
CONTINUOUS
10
152.881
20
-109.352
11
153.181
21
-109.652
0
LINE
8
BLACK
6
CONTINUOUS
10
153.181
20
-109.352
11
152.881
21
-109.652
0
LINE
8
BLACK
6
CONTINUOUS
10
153.214
20
-109.435
11
152.998
21
-109.31
0
LINE
8
BLACK
6
CONTINUOUS
10
153.064
20
-109.695
11
152.848
21
-109.57
0
ARC
8
BLACK
10
152.923
20
-109.44
40
0.15
50
420
51
600
0
ARC
8
BLACK
10
153.139
20
-109.565
40
0.15
50
240
51
420
0
LINE
8
BLACK
6
CONTINUOUS
10
154.575
20
-93.3521
11
154.875
21
-93.6521
0
LINE
8
BLACK
6
CONTINUOUS
10
154.875
20
-93.3521
11
154.575
21
-93.6521
0
LINE
8
BLACK
6
CONTINUOUS
10
154.758
20
-93.3097
11
154.542
21
-93.4347
0
LINE
8
BLACK
6
CONTINUOUS
10
154.908
20
-93.5696
11
154.692
21
-93.6946
0
ARC
8
BLACK
10
154.617
20
-93.5646
40
0.15
50
480
51
660
0
ARC
8
BLACK
10
154.833
20
-93.4396
40
0.15
50
300
51
480
0
LINE
8
BLACK
6
CONTINUOUS
10
154.731
20
-106.148
11
155.031
21
-106.448
0
LINE
8
BLACK
6
CONTINUOUS
10
155.031
20
-106.148
11
154.731
21
-106.448
0
LINE
8
BLACK
6
CONTINUOUS
10
155.064
20
-106.23
11
154.848
21
-106.105
0
LINE
8
BLACK
6
CONTINUOUS
10
154.914
20
-106.49
11
154.698
21
-106.365
0
ARC
8
BLACK
10
154.773
20
-106.235
40
0.15
50
420
51
600
0
ARC
8
BLACK
10
154.989
20
-106.36
40
0.15
50
240
51
420
0
CIRCLE
8
BLACK
10
126
20
-104
40
0.2
0
CIRCLE
8
BLACK
10
129
20
-102
40
0.2
0
CIRCLE
8
BLACK
10
131
20
-86
40
0.2
0
CIRCLE
8
BLACK
10
131
20
-104
40
0.2
0
CIRCLE
8
BLACK
10
131
20
-114
40
0.2
0
CIRCLE
8
BLACK
10
133
20
-108
40
0.2
0
CIRCLE
8
BLACK
10
135
20
-94.5
40
0.2
0
CIRCLE
8
BLACK
10
135
20
-103.5
40
0.2
0
CIRCLE
8
BLACK
10
135.817
20
-113.183
40
0.2
0
CIRCLE
8
BLACK
10
139
20
-110
40
0.2
0
CIRCLE
8
BLACK
10
140
20
-100
40
0.2
0
CIRCLE
8
BLACK
10
141.5
20
-110
40
0.2
0
CIRCLE
8
BLACK
10
145
20
-94.5
40
0.2
0
CIRCLE
8
BLACK
10
146
20
-115
40
0.2
0
CIRCLE
8
BLACK
10
147
20
-108
40
0.2
0
CIRCLE
8
BLACK
10
147.3
20
-100
40
0.2
0
CIRCLE
8
BLACK
10
148
20
-105
40
0.2
0
CIRCLE
8
BLACK
10
148.5
20
-86
40
0.2
0
CIRCLE
8
BLACK
10
149
20
-114
40
0.2
0
CIRCLE
8
BLACK
10
149.5
20
-107.5
40
0.2
0
CIRCLE
8
BLACK
10
152
20
-95.75
40
0.2
0
CIRCLE
8
BLACK
10
154
20
-104
40
0.2
0
LINE
8
BLACK
6
CONTINUOUS
10
125.497
20
-123.905
11
125.497
21
-121.905
0
LINE
8
BLACK
6
CONTINUOUS
10
125.497
20
-121.905
11
125.973
21
-121.905
0
LINE
8
BLACK
6
CONTINUOUS
10
125.973
20
-121.905
11
126.259
21
-122
0
LINE
8
BLACK
6
CONTINUOUS
10
126.259
20
-122
11
126.449
21
-122.19
0
LINE
8
BLACK
6
CONTINUOUS
10
126.449
20
-122.19
11
126.544
21
-122.381
0
LINE
8
BLACK
6
CONTINUOUS
10
126.544
20
-122.381
11
126.64
21
-122.762
0
LINE
8
BLACK
6
CONTINUOUS
10
126.64
20
-122.762
11
126.64
21
-123.048
0
LINE
8
BLACK
6
CONTINUOUS
10
126.64
20
-123.048
11
126.544
21
-123.429
0
LINE
8
BLACK
6
CONTINUOUS
10
126.544
20
-123.429
11
126.449
21
-123.619
0
LINE
8
BLACK
6
CONTINUOUS
10
126.449
20
-123.619
11
126.259
21
-123.81
0
LINE
8
BLACK
6
CONTINUOUS
10
126.259
20
-123.81
11
125.973
21
-123.905
0
LINE
8
BLACK
6
CONTINUOUS
10
125.973
20
-123.905
11
125.497
21
-123.905
0
LINE
8
BLACK
6
CONTINUOUS
10
127.497
20
-123.905
11
127.497
21
-122.571
0
LINE
8
BLACK
6
CONTINUOUS
10
127.497
20
-122.952
11
127.592
21
-122.762
0
LINE
8
BLACK
6
CONTINUOUS
10
127.592
20
-122.762
11
127.687
21
-122.667
0
LINE
8
BLACK
6
CONTINUOUS
10
127.687
20
-122.667
11
127.878
21
-122.571
0
LINE
8
BLACK
6
CONTINUOUS
10
127.878
20
-122.571
11
128.068
21
-122.571
0
LINE
8
BLACK
6
CONTINUOUS
10
128.735
20
-123.905
11
128.735
21
-122.571
0
LINE
8
BLACK
6
CONTINUOUS
10
128.735
20
-121.905
11
128.64
21
-122
0
LINE
8
BLACK
6
CONTINUOUS
10
128.64
20
-122
11
128.735
21
-122.095
0
LINE
8
BLACK
6
CONTINUOUS
10
128.735
20
-122.095
11
128.83
21
-122
0
LINE
8
BLACK
6
CONTINUOUS
10
128.83
20
-122
11
128.735
21
-121.905
0
LINE
8
BLACK
6
CONTINUOUS
10
128.735
20
-121.905
11
128.735
21
-122.095
0
LINE
8
BLACK
6
CONTINUOUS
10
129.973
20
-123.905
11
129.783
21
-123.81
0
LINE
8
BLACK
6
CONTINUOUS
10
129.783
20
-123.81
11
129.687
21
-123.619
0
LINE
8
BLACK
6
CONTINUOUS
10
129.687
20
-123.619
11
129.687
21
-121.905
0
LINE
8
BLACK
6
CONTINUOUS
10
131.021
20
-123.905
11
130.83
21
-123.81
0
LINE
8
BLACK
6
CONTINUOUS
10
130.83
20
-123.81
11
130.735
21
-123.619
0
LINE
8
BLACK
6
CONTINUOUS
10
130.735
20
-123.619
11
130.735
21
-121.905
0
LINE
8
BLACK
6
CONTINUOUS
10
133.306
20
-123.905
11
133.306
21
-121.905
0
LINE
8
BLACK
6
CONTINUOUS
10
133.306
20
-121.905
11
133.973
21
-123.333
0
LINE
8
BLACK
6
CONTINUOUS
10
133.973
20
-123.333
11
134.64
21
-121.905
0
LINE
8
BLACK
6
CONTINUOUS
10
134.64
20
-121.905
11
134.64
21
-123.905
0
LINE
8
BLACK
6
CONTINUOUS
10
136.449
20
-123.905
11
136.449
21
-122.857
0
LINE
8
BLACK
6
CONTINUOUS
10
136.449
20
-122.857
11
136.354
21
-122.667
0
LINE
8
BLACK
6
CONTINUOUS
10
136.354
20
-122.667
11
136.163
21
-122.571
0
LINE
8
BLACK
6
CONTINUOUS
10
136.163
20
-122.571
11
135.783
21
-122.571
0
LINE
8
BLACK
6
CONTINUOUS
10
135.783
20
-122.571
11
135.592
21
-122.667
0
LINE
8
BLACK
6
CONTINUOUS
10
136.449
20
-123.81
11
136.259
21
-123.905
0
LINE
8
BLACK
6
CONTINUOUS
10
136.259
20
-123.905
11
135.783
21
-123.905
0
LINE
8
BLACK
6
CONTINUOUS
10
135.783
20
-123.905
11
135.592
21
-123.81
0
LINE
8
BLACK
6
CONTINUOUS
10
135.592
20
-123.81
11
135.497
21
-123.619
0
LINE
8
BLACK
6
CONTINUOUS
10
135.497
20
-123.619
11
135.497
21
-123.429
0
LINE
8
BLACK
6
CONTINUOUS
10
135.497
20
-123.429
11
135.592
21
-123.238
0
LINE
8
BLACK
6
CONTINUOUS
10
135.592
20
-123.238
11
135.783
21
-123.143
0
LINE
8
BLACK
6
CONTINUOUS
10
135.783
20
-123.143
11
136.259
21
-123.143
0
LINE
8
BLACK
6
CONTINUOUS
10
136.259
20
-123.143
11
136.449
21
-123.048
0
LINE
8
BLACK
6
CONTINUOUS
10
137.402
20
-122.571
11
137.402
21
-124.571
0
LINE
8
BLACK
6
CONTINUOUS
10
137.402
20
-122.667
11
137.592
21
-122.571
0
LINE
8
BLACK
6
CONTINUOUS
10
137.592
20
-122.571
11
137.973
21
-122.571
0
LINE
8
BLACK
6
CONTINUOUS
10
137.973
20
-122.571
11
138.163
21
-122.667
0
LINE
8
BLACK
6
CONTINUOUS
10
138.163
20
-122.667
11
138.259
21
-122.762
0
LINE
8
BLACK
6
CONTINUOUS
10
138.259
20
-122.762
11
138.354
21
-122.952
0
LINE
8
BLACK
6
CONTINUOUS
10
138.354
20
-122.952
11
138.354
21
-123.524
0
LINE
8
BLACK
6
CONTINUOUS
10
138.354
20
-123.524
11
138.259
21
-123.714
0
LINE
8
BLACK
6
CONTINUOUS
10
138.259
20
-123.714
11
138.163
21
-123.81
0
LINE
8
BLACK
6
CONTINUOUS
10
138.163
20
-123.81
11
137.973
21
-123.905
0
LINE
8
BLACK
6
CONTINUOUS
10
137.973
20
-123.905
11
137.592
21
-123.905
0
LINE
8
BLACK
6
CONTINUOUS
10
137.592
20
-123.905
11
137.402
21
-123.81
0
LINE
8
BLACK
6
CONTINUOUS
10
139.211
20
-123.714
11
139.306
21
-123.81
0
LINE
8
BLACK
6
CONTINUOUS
10
139.306
20
-123.81
11
139.211
21
-123.905
0
LINE
8
BLACK
6
CONTINUOUS
10
139.211
20
-123.905
11
139.116
21
-123.81
0
LINE
8
BLACK
6
CONTINUOUS
10
139.116
20
-123.81
11
139.211
21
-123.714
0
LINE
8
BLACK
6
CONTINUOUS
10
139.211
20
-123.714
11
139.211
21
-123.905
0
LINE
8
BLACK
6
CONTINUOUS
10
139.211
20
-122.667
11
139.306
21
-122.762
0
LINE
8
BLACK
6
CONTINUOUS
10
139.306
20
-122.762
11
139.211
21
-122.857
0
LINE
8
BLACK
6
CONTINUOUS
10
139.211
20
-122.857
11
139.116
21
-122.762
0
LINE
8
BLACK
6
CONTINUOUS
10
139.116
20
-122.762
11
139.211
21
-122.667
0
LINE
8
BLACK
6
CONTINUOUS
10
139.211
20
-122.667
11
139.211
21
-122.857
0
LINE
8
BLACK
6
CONTINUOUS
10
122.621
20
-127.05
11
122.921
21
-127.35
0
LINE
8
BLACK
6
CONTINUOUS
10
122.921
20
-127.05
11
122.621
21
-127.35
0
LINE
8
BLACK
6
CONTINUOUS
10
125.878
20
-126.105
11
126.068
21
-126.105
0
LINE
8
BLACK
6
CONTINUOUS
10
126.068
20
-126.105
11
126.259
21
-126.2
0
LINE
8
BLACK
6
CONTINUOUS
10
126.259
20
-126.2
11
126.354
21
-126.295
0
LINE
8
BLACK
6
CONTINUOUS
10
126.354
20
-126.295
11
126.449
21
-126.486
0
LINE
8
BLACK
6
CONTINUOUS
10
126.449
20
-126.486
11
126.544
21
-126.867
0
LINE
8
BLACK
6
CONTINUOUS
10
126.544
20
-126.867
11
126.544
21
-127.343
0
LINE
8
BLACK
6
CONTINUOUS
10
126.544
20
-127.343
11
126.449
21
-127.724
0
LINE
8
BLACK
6
CONTINUOUS
10
126.449
20
-127.724
11
126.354
21
-127.914
0
LINE
8
BLACK
6
CONTINUOUS
10
126.354
20
-127.914
11
126.259
21
-128.01
0
LINE
8
BLACK
6
CONTINUOUS
10
126.259
20
-128.01
11
126.068
21
-128.105
0
LINE
8
BLACK
6
CONTINUOUS
10
126.068
20
-128.105
11
125.878
21
-128.105
0
LINE
8
BLACK
6
CONTINUOUS
10
125.878
20
-128.105
11
125.687
21
-128.01
0
LINE
8
BLACK
6
CONTINUOUS
10
125.687
20
-128.01
11
125.592
21
-127.914
0
LINE
8
BLACK
6
CONTINUOUS
10
125.592
20
-127.914
11
125.497
21
-127.724
0
LINE
8
BLACK
6
CONTINUOUS
10
125.497
20
-127.724
11
125.402
21
-127.343
0
LINE
8
BLACK
6
CONTINUOUS
10
125.402
20
-127.343
11
125.402
21
-126.867
0
LINE
8
BLACK
6
CONTINUOUS
10
125.402
20
-126.867
11
125.497
21
-126.486
0
LINE
8
BLACK
6
CONTINUOUS
10
125.497
20
-126.486
11
125.592
21
-126.295
0
LINE
8
BLACK
6
CONTINUOUS
10
125.592
20
-126.295
11
125.687
21
-126.2
0
LINE
8
BLACK
6
CONTINUOUS
10
125.687
20
-126.2
11
125.878
21
-126.105
0
LINE
8
BLACK
6
CONTINUOUS
10
127.402
20
-127.914
11
127.497
21
-128.01
0
LINE
8
BLACK
6
CONTINUOUS
10
127.497
20
-128.01
11
127.402
21
-128.105
0
LINE
8
BLACK
6
CONTINUOUS
10
127.402
20
-128.105
11
127.306
21
-128.01
0
LINE
8
BLACK
6
CONTINUOUS
10
127.306
20
-128.01
11
127.402
21
-127.914
0
LINE
8
BLACK
6
CONTINUOUS
10
127.402
20
-127.914
11
127.402
21
-128.105
0
LINE
8
BLACK
6
CONTINUOUS
10
128.163
20
-126.105
11
129.402
21
-126.105
0
LINE
8
BLACK
6
CONTINUOUS
10
129.402
20
-126.105
11
128.735
21
-126.867
0
LINE
8
BLACK
6
CONTINUOUS
10
128.735
20
-126.867
11
129.021
21
-126.867
0
LINE
8
BLACK
6
CONTINUOUS
10
129.021
20
-126.867
11
129.211
21
-126.962
0
LINE
8
BLACK
6
CONTINUOUS
10
129.211
20
-126.962
11
129.306
21
-127.057
0
LINE
8
BLACK
6
CONTINUOUS
10
129.306
20
-127.057
11
129.402
21
-127.248
0
LINE
8
BLACK
6
CONTINUOUS
10
129.402
20
-127.248
11
129.402
21
-127.724
0
LINE
8
BLACK
6
CONTINUOUS
10
129.402
20
-127.724
11
129.306
21
-127.914
0
LINE
8
BLACK
6
CONTINUOUS
10
129.306
20
-127.914
11
129.211
21
-128.01
0
LINE
8
BLACK
6
CONTINUOUS
10
129.211
20
-128.01
11
129.021
21
-128.105
0
LINE
8
BLACK
6
CONTINUOUS
10
129.021
20
-128.105
11
128.449
21
-128.105
0
LINE
8
BLACK
6
CONTINUOUS
10
128.449
20
-128.105
11
128.259
21
-128.01
0
LINE
8
BLACK
6
CONTINUOUS
10
128.259
20
-128.01
11
128.163
21
-127.914
0
LINE
8
BLACK
6
CONTINUOUS
10
130.64
20
-126.105
11
130.83
21
-126.105
0
LINE
8
BLACK
6
CONTINUOUS
10
130.83
20
-126.105
11
131.021
21
-126.2
0
LINE
8
BLACK
6
CONTINUOUS
10
131.021
20
-126.2
11
131.116
21
-126.295
0
LINE
8
BLACK
6
CONTINUOUS
10
131.116
20
-126.295
11
131.211
21
-126.486
0
LINE
8
BLACK
6
CONTINUOUS
10
131.211
20
-126.486
11
131.306
21
-126.867
0
LINE
8
BLACK
6
CONTINUOUS
10
131.306
20
-126.867
11
131.306
21
-127.343
0
LINE
8
BLACK
6
CONTINUOUS
10
131.306
20
-127.343
11
131.211
21
-127.724
0
LINE
8
BLACK
6
CONTINUOUS
10
131.211
20
-127.724
11
131.116
21
-127.914
0
LINE
8
BLACK
6
CONTINUOUS
10
131.116
20
-127.914
11
131.021
21
-128.01
0
LINE
8
BLACK
6
CONTINUOUS
10
131.021
20
-128.01
11
130.83
21
-128.105
0
LINE
8
BLACK
6
CONTINUOUS
10
130.83
20
-128.105
11
130.64
21
-128.105
0
LINE
8
BLACK
6
CONTINUOUS
10
130.64
20
-128.105
11
130.449
21
-128.01
0
LINE
8
BLACK
6
CONTINUOUS
10
130.449
20
-128.01
11
130.354
21
-127.914
0
LINE
8
BLACK
6
CONTINUOUS
10
130.354
20
-127.914
11
130.259
21
-127.724
0
LINE
8
BLACK
6
CONTINUOUS
10
130.259
20
-127.724
11
130.163
21
-127.343
0
LINE
8
BLACK
6
CONTINUOUS
10
130.163
20
-127.343
11
130.163
21
-126.867
0
LINE
8
BLACK
6
CONTINUOUS
10
130.163
20
-126.867
11
130.259
21
-126.486
0
LINE
8
BLACK
6
CONTINUOUS
10
130.259
20
-126.486
11
130.354
21
-126.295
0
LINE
8
BLACK
6
CONTINUOUS
10
130.354
20
-126.295
11
130.449
21
-126.2
0
LINE
8
BLACK
6
CONTINUOUS
10
130.449
20
-126.2
11
130.64
21
-126.105
0
LINE
8
BLACK
6
CONTINUOUS
10
132.544
20
-126.105
11
132.735
21
-126.105
0
LINE
8
BLACK
6
CONTINUOUS
10
132.735
20
-126.105
11
132.925
21
-126.2
0
LINE
8
BLACK
6
CONTINUOUS
10
132.925
20
-126.2
11
133.021
21
-126.295
0
LINE
8
BLACK
6
CONTINUOUS
10
133.021
20
-126.295
11
133.116
21
-126.486
0
LINE
8
BLACK
6
CONTINUOUS
10
133.116
20
-126.486
11
133.211
21
-126.867
0
LINE
8
BLACK
6
CONTINUOUS
10
133.211
20
-126.867
11
133.211
21
-127.343
0
LINE
8
BLACK
6
CONTINUOUS
10
133.211
20
-127.343
11
133.116
21
-127.724
0
LINE
8
BLACK
6
CONTINUOUS
10
133.116
20
-127.724
11
133.021
21
-127.914
0
LINE
8
BLACK
6
CONTINUOUS
10
133.021
20
-127.914
11
132.925
21
-128.01
0
LINE
8
BLACK
6
CONTINUOUS
10
132.925
20
-128.01
11
132.735
21
-128.105
0
LINE
8
BLACK
6
CONTINUOUS
10
132.735
20
-128.105
11
132.544
21
-128.105
0
LINE
8
BLACK
6
CONTINUOUS
10
132.544
20
-128.105
11
132.354
21
-128.01
0
LINE
8
BLACK
6
CONTINUOUS
10
132.354
20
-128.01
11
132.259
21
-127.914
0
LINE
8
BLACK
6
CONTINUOUS
10
132.259
20
-127.914
11
132.163
21
-127.724
0
LINE
8
BLACK
6
CONTINUOUS
10
132.163
20
-127.724
11
132.068
21
-127.343
0
LINE
8
BLACK
6
CONTINUOUS
10
132.068
20
-127.343
11
132.068
21
-126.867
0
LINE
8
BLACK
6
CONTINUOUS
10
132.068
20
-126.867
11
132.163
21
-126.486
0
LINE
8
BLACK
6
CONTINUOUS
10
132.163
20
-126.486
11
132.259
21
-126.295
0
LINE
8
BLACK
6
CONTINUOUS
10
132.259
20
-126.295
11
132.354
21
-126.2
0
LINE
8
BLACK
6
CONTINUOUS
10
132.354
20
-126.2
11
132.544
21
-126.105
0
LINE
8
BLACK
6
CONTINUOUS
10
134.068
20
-128.105
11
134.068
21
-126.771
0
LINE
8
BLACK
6
CONTINUOUS
10
134.068
20
-126.962
11
134.163
21
-126.867
0
LINE
8
BLACK
6
CONTINUOUS
10
134.163
20
-126.867
11
134.354
21
-126.771
0
LINE
8
BLACK
6
CONTINUOUS
10
134.354
20
-126.771
11
134.64
21
-126.771
0
LINE
8
BLACK
6
CONTINUOUS
10
134.64
20
-126.771
11
134.83
21
-126.867
0
LINE
8
BLACK
6
CONTINUOUS
10
134.83
20
-126.867
11
134.925
21
-127.057
0
LINE
8
BLACK
6
CONTINUOUS
10
134.925
20
-127.057
11
134.925
21
-128.105
0
LINE
8
BLACK
6
CONTINUOUS
10
134.925
20
-127.057
11
135.021
21
-126.867
0
LINE
8
BLACK
6
CONTINUOUS
10
135.021
20
-126.867
11
135.211
21
-126.771
0
LINE
8
BLACK
6
CONTINUOUS
10
135.211
20
-126.771
11
135.497
21
-126.771
0
LINE
8
BLACK
6
CONTINUOUS
10
135.497
20
-126.771
11
135.687
21
-126.867
0
LINE
8
BLACK
6
CONTINUOUS
10
135.687
20
-126.867
11
135.783
21
-127.057
0
LINE
8
BLACK
6
CONTINUOUS
10
135.783
20
-127.057
11
135.783
21
-128.105
0
LINE
8
BLACK
6
CONTINUOUS
10
136.735
20
-128.105
11
136.735
21
-126.771
0
LINE
8
BLACK
6
CONTINUOUS
10
136.735
20
-126.962
11
136.83
21
-126.867
0
LINE
8
BLACK
6
CONTINUOUS
10
136.83
20
-126.867
11
137.021
21
-126.771
0
LINE
8
BLACK
6
CONTINUOUS
10
137.021
20
-126.771
11
137.306
21
-126.771
0
LINE
8
BLACK
6
CONTINUOUS
10
137.306
20
-126.771
11
137.497
21
-126.867
0
LINE
8
BLACK
6
CONTINUOUS
10
137.497
20
-126.867
11
137.592
21
-127.057
0
LINE
8
BLACK
6
CONTINUOUS
10
137.592
20
-127.057
11
137.592
21
-128.105
0
LINE
8
BLACK
6
CONTINUOUS
10
137.592
20
-127.057
11
137.687
21
-126.867
0
LINE
8
BLACK
6
CONTINUOUS
10
137.687
20
-126.867
11
137.878
21
-126.771
0
LINE
8
BLACK
6
CONTINUOUS
10
137.878
20
-126.771
11
138.163
21
-126.771
0
LINE
8
BLACK
6
CONTINUOUS
10
138.163
20
-126.771
11
138.354
21
-126.867
0
LINE
8
BLACK
6
CONTINUOUS
10
138.354
20
-126.867
11
138.449
21
-127.057
0
LINE
8
BLACK
6
CONTINUOUS
10
138.449
20
-127.057
11
138.449
21
-128.105
0
LINE
8
BLACK
6
CONTINUOUS
10
142.354
20
-126.01
11
140.64
21
-128.581
0
LINE
8
BLACK
6
CONTINUOUS
10
144.925
20
-126.105
11
145.116
21
-126.105
0
LINE
8
BLACK
6
CONTINUOUS
10
145.116
20
-126.105
11
145.306
21
-126.2
0
LINE
8
BLACK
6
CONTINUOUS
10
145.306
20
-126.2
11
145.402
21
-126.295
0
LINE
8
BLACK
6
CONTINUOUS
10
145.402
20
-126.295
11
145.497
21
-126.486
0
LINE
8
BLACK
6
CONTINUOUS
10
145.497
20
-126.486
11
145.592
21
-126.867
0
LINE
8
BLACK
6
CONTINUOUS
10
145.592
20
-126.867
11
145.592
21
-127.343
0
LINE
8
BLACK
6
CONTINUOUS
10
145.592
20
-127.343
11
145.497
21
-127.724
0
LINE
8
BLACK
6
CONTINUOUS
10
145.497
20
-127.724
11
145.402
21
-127.914
0
LINE
8
BLACK
6
CONTINUOUS
10
145.402
20
-127.914
11
145.306
21
-128.01
0
LINE
8
BLACK
6
CONTINUOUS
10
145.306
20
-128.01
11
145.116
21
-128.105
0
LINE
8
BLACK
6
CONTINUOUS
10
145.116
20
-128.105
11
144.925
21
-128.105
0
LINE
8
BLACK
6
CONTINUOUS
10
144.925
20
-128.105
11
144.735
21
-128.01
0
LINE
8
BLACK
6
CONTINUOUS
10
144.735
20
-128.01
11
144.64
21
-127.914
0
LINE
8
BLACK
6
CONTINUOUS
10
144.64
20
-127.914
11
144.544
21
-127.724
0
LINE
8
BLACK
6
CONTINUOUS
10
144.544
20
-127.724
11
144.449
21
-127.343
0
LINE
8
BLACK
6
CONTINUOUS
10
144.449
20
-127.343
11
144.449
21
-126.867
0
LINE
8
BLACK
6
CONTINUOUS
10
144.449
20
-126.867
11
144.544
21
-126.486
0
LINE
8
BLACK
6
CONTINUOUS
10
144.544
20
-126.486
11
144.64
21
-126.295
0
LINE
8
BLACK
6
CONTINUOUS
10
144.64
20
-126.295
11
144.735
21
-126.2
0
LINE
8
BLACK
6
CONTINUOUS
10
144.735
20
-126.2
11
144.925
21
-126.105
0
LINE
8
BLACK
6
CONTINUOUS
10
146.449
20
-127.914
11
146.544
21
-128.01
0
LINE
8
BLACK
6
CONTINUOUS
10
146.544
20
-128.01
11
146.449
21
-128.105
0
LINE
8
BLACK
6
CONTINUOUS
10
146.449
20
-128.105
11
146.354
21
-128.01
0
LINE
8
BLACK
6
CONTINUOUS
10
146.354
20
-128.01
11
146.449
21
-127.914
0
LINE
8
BLACK
6
CONTINUOUS
10
146.449
20
-127.914
11
146.449
21
-128.105
0
LINE
8
BLACK
6
CONTINUOUS
10
147.783
20
-126.105
11
147.973
21
-126.105
0
LINE
8
BLACK
6
CONTINUOUS
10
147.973
20
-126.105
11
148.163
21
-126.2
0
LINE
8
BLACK
6
CONTINUOUS
10
148.163
20
-126.2
11
148.259
21
-126.295
0
LINE
8
BLACK
6
CONTINUOUS
10
148.259
20
-126.295
11
148.354
21
-126.486
0
LINE
8
BLACK
6
CONTINUOUS
10
148.354
20
-126.486
11
148.449
21
-126.867
0
LINE
8
BLACK
6
CONTINUOUS
10
148.449
20
-126.867
11
148.449
21
-127.343
0
LINE
8
BLACK
6
CONTINUOUS
10
148.449
20
-127.343
11
148.354
21
-127.724
0
LINE
8
BLACK
6
CONTINUOUS
10
148.354
20
-127.724
11
148.259
21
-127.914
0
LINE
8
BLACK
6
CONTINUOUS
10
148.259
20
-127.914
11
148.163
21
-128.01
0
LINE
8
BLACK
6
CONTINUOUS
10
148.163
20
-128.01
11
147.973
21
-128.105
0
LINE
8
BLACK
6
CONTINUOUS
10
147.973
20
-128.105
11
147.783
21
-128.105
0
LINE
8
BLACK
6
CONTINUOUS
10
147.783
20
-128.105
11
147.592
21
-128.01
0
LINE
8
BLACK
6
CONTINUOUS
10
147.592
20
-128.01
11
147.497
21
-127.914
0
LINE
8
BLACK
6
CONTINUOUS
10
147.497
20
-127.914
11
147.402
21
-127.724
0
LINE
8
BLACK
6
CONTINUOUS
10
147.402
20
-127.724
11
147.306
21
-127.343
0
LINE
8
BLACK
6
CONTINUOUS
10
147.306
20
-127.343
11
147.306
21
-126.867
0
LINE
8
BLACK
6
CONTINUOUS
10
147.306
20
-126.867
11
147.402
21
-126.486
0
LINE
8
BLACK
6
CONTINUOUS
10
147.402
20
-126.486
11
147.497
21
-126.295
0
LINE
8
BLACK
6
CONTINUOUS
10
147.497
20
-126.295
11
147.592
21
-126.2
0
LINE
8
BLACK
6
CONTINUOUS
10
147.592
20
-126.2
11
147.783
21
-126.105
0
LINE
8
BLACK
6
CONTINUOUS
10
150.354
20
-128.105
11
149.211
21
-128.105
0
LINE
8
BLACK
6
CONTINUOUS
10
149.783
20
-128.105
11
149.783
21
-126.105
0
LINE
8
BLACK
6
CONTINUOUS
10
149.783
20
-126.105
11
149.592
21
-126.39
0
LINE
8
BLACK
6
CONTINUOUS
10
149.592
20
-126.39
11
149.402
21
-126.581
0
LINE
8
BLACK
6
CONTINUOUS
10
149.402
20
-126.581
11
149.211
21
-126.676
0
LINE
8
BLACK
6
CONTINUOUS
10
152.259
20
-128.105
11
151.116
21
-128.105
0
LINE
8
BLACK
6
CONTINUOUS
10
151.687
20
-128.105
11
151.687
21
-126.105
0
LINE
8
BLACK
6
CONTINUOUS
10
151.687
20
-126.105
11
151.497
21
-126.39
0
LINE
8
BLACK
6
CONTINUOUS
10
151.497
20
-126.39
11
151.306
21
-126.581
0
LINE
8
BLACK
6
CONTINUOUS
10
151.306
20
-126.581
11
151.116
21
-126.676
0
LINE
8
BLACK
6
CONTINUOUS
10
153.402
20
-126.962
11
153.211
21
-126.867
0
LINE
8
BLACK
6
CONTINUOUS
10
153.211
20
-126.867
11
153.116
21
-126.771
0
LINE
8
BLACK
6
CONTINUOUS
10
153.116
20
-126.771
11
153.021
21
-126.581
0
LINE
8
BLACK
6
CONTINUOUS
10
153.021
20
-126.581
11
153.021
21
-126.486
0
LINE
8
BLACK
6
CONTINUOUS
10
153.021
20
-126.486
11
153.116
21
-126.295
0
LINE
8
BLACK
6
CONTINUOUS
10
153.116
20
-126.295
11
153.211
21
-126.2
0
LINE
8
BLACK
6
CONTINUOUS
10
153.211
20
-126.2
11
153.402
21
-126.105
0
LINE
8
BLACK
6
CONTINUOUS
10
153.402
20
-126.105
11
153.783
21
-126.105
0
LINE
8
BLACK
6
CONTINUOUS
10
153.783
20
-126.105
11
153.973
21
-126.2
0
LINE
8
BLACK
6
CONTINUOUS
10
153.973
20
-126.2
11
154.068
21
-126.295
0
LINE
8
BLACK
6
CONTINUOUS
10
154.068
20
-126.295
11
154.163
21
-126.486
0
LINE
8
BLACK
6
CONTINUOUS
10
154.163
20
-126.486
11
154.163
21
-126.581
0
LINE
8
BLACK
6
CONTINUOUS
10
154.163
20
-126.581
11
154.068
21
-126.771
0
LINE
8
BLACK
6
CONTINUOUS
10
154.068
20
-126.771
11
153.973
21
-126.867
0
LINE
8
BLACK
6
CONTINUOUS
10
153.973
20
-126.867
11
153.783
21
-126.962
0
LINE
8
BLACK
6
CONTINUOUS
10
153.783
20
-126.962
11
153.402
21
-126.962
0
LINE
8
BLACK
6
CONTINUOUS
10
153.402
20
-126.962
11
153.211
21
-127.057
0
LINE
8
BLACK
6
CONTINUOUS
10
153.211
20
-127.057
11
153.116
21
-127.152
0
LINE
8
BLACK
6
CONTINUOUS
10
153.116
20
-127.152
11
153.021
21
-127.343
0
LINE
8
BLACK
6
CONTINUOUS
10
153.021
20
-127.343
11
153.021
21
-127.724
0
LINE
8
BLACK
6
CONTINUOUS
10
153.021
20
-127.724
11
153.116
21
-127.914
0
LINE
8
BLACK
6
CONTINUOUS
10
153.116
20
-127.914
11
153.211
21
-128.01
0
LINE
8
BLACK
6
CONTINUOUS
10
153.211
20
-128.01
11
153.402
21
-128.105
0
LINE
8
BLACK
6
CONTINUOUS
10
153.402
20
-128.105
11
153.783
21
-128.105
0
LINE
8
BLACK
6
CONTINUOUS
10
153.783
20
-128.105
11
153.973
21
-128.01
0
LINE
8
BLACK
6
CONTINUOUS
10
153.973
20
-128.01
11
154.068
21
-127.914
0
LINE
8
BLACK
6
CONTINUOUS
10
154.068
20
-127.914
11
154.163
21
-127.724
0
LINE
8
BLACK
6
CONTINUOUS
10
154.163
20
-127.724
11
154.163
21
-127.343
0
LINE
8
BLACK
6
CONTINUOUS
10
154.163
20
-127.343
11
154.068
21
-127.152
0
LINE
8
BLACK
6
CONTINUOUS
10
154.068
20
-127.152
11
153.973
21
-127.057
0
LINE
8
BLACK
6
CONTINUOUS
10
153.973
20
-127.057
11
153.783
21
-126.962
0
LINE
8
BLACK
6
CONTINUOUS
10
154.925
20
-126.105
11
154.925
21
-126.486
0
LINE
8
BLACK
6
CONTINUOUS
10
155.687
20
-126.105
11
155.687
21
-126.486
0
LINE
8
BLACK
6
CONTINUOUS
10
158.64
20
-128.867
11
158.544
21
-128.771
0
LINE
8
BLACK
6
CONTINUOUS
10
158.544
20
-128.771
11
158.354
21
-128.486
0
LINE
8
BLACK
6
CONTINUOUS
10
158.354
20
-128.486
11
158.259
21
-128.295
0
LINE
8
BLACK
6
CONTINUOUS
10
158.259
20
-128.295
11
158.163
21
-128.01
0
LINE
8
BLACK
6
CONTINUOUS
10
158.163
20
-128.01
11
158.068
21
-127.533
0
LINE
8
BLACK
6
CONTINUOUS
10
158.068
20
-127.533
11
158.068
21
-127.152
0
LINE
8
BLACK
6
CONTINUOUS
10
158.068
20
-127.152
11
158.163
21
-126.676
0
LINE
8
BLACK
6
CONTINUOUS
10
158.163
20
-126.676
11
158.259
21
-126.39
0
LINE
8
BLACK
6
CONTINUOUS
10
158.259
20
-126.39
11
158.354
21
-126.2
0
LINE
8
BLACK
6
CONTINUOUS
10
158.354
20
-126.2
11
158.544
21
-125.914
0
LINE
8
BLACK
6
CONTINUOUS
10
158.544
20
-125.914
11
158.64
21
-125.819
0
LINE
8
BLACK
6
CONTINUOUS
10
159.783
20
-126.105
11
159.973
21
-126.105
0
LINE
8
BLACK
6
CONTINUOUS
10
159.973
20
-126.105
11
160.163
21
-126.2
0
LINE
8
BLACK
6
CONTINUOUS
10
160.163
20
-126.2
11
160.259
21
-126.295
0
LINE
8
BLACK
6
CONTINUOUS
10
160.259
20
-126.295
11
160.354
21
-126.486
0
LINE
8
BLACK
6
CONTINUOUS
10
160.354
20
-126.486
11
160.449
21
-126.867
0
LINE
8
BLACK
6
CONTINUOUS
10
160.449
20
-126.867
11
160.449
21
-127.343
0
LINE
8
BLACK
6
CONTINUOUS
10
160.449
20
-127.343
11
160.354
21
-127.724
0
LINE
8
BLACK
6
CONTINUOUS
10
160.354
20
-127.724
11
160.259
21
-127.914
0
LINE
8
BLACK
6
CONTINUOUS
10
160.259
20
-127.914
11
160.163
21
-128.01
0
LINE
8
BLACK
6
CONTINUOUS
10
160.163
20
-128.01
11
159.973
21
-128.105
0
LINE
8
BLACK
6
CONTINUOUS
10
159.973
20
-128.105
11
159.783
21
-128.105
0
LINE
8
BLACK
6
CONTINUOUS
10
159.783
20
-128.105
11
159.592
21
-128.01
0
LINE
8
BLACK
6
CONTINUOUS
10
159.592
20
-128.01
11
159.497
21
-127.914
0
LINE
8
BLACK
6
CONTINUOUS
10
159.497
20
-127.914
11
159.402
21
-127.724
0
LINE
8
BLACK
6
CONTINUOUS
10
159.402
20
-127.724
11
159.306
21
-127.343
0
LINE
8
BLACK
6
CONTINUOUS
10
159.306
20
-127.343
11
159.306
21
-126.867
0
LINE
8
BLACK
6
CONTINUOUS
10
159.306
20
-126.867
11
159.402
21
-126.486
0
LINE
8
BLACK
6
CONTINUOUS
10
159.402
20
-126.486
11
159.497
21
-126.295
0
LINE
8
BLACK
6
CONTINUOUS
10
159.497
20
-126.295
11
159.592
21
-126.2
0
LINE
8
BLACK
6
CONTINUOUS
10
159.592
20
-126.2
11
159.783
21
-126.105
0
LINE
8
BLACK
6
CONTINUOUS
10
162.83
20
-128.105
11
162.83
21
-126.105
0
LINE
8
BLACK
6
CONTINUOUS
10
163.687
20
-128.105
11
163.687
21
-127.057
0
LINE
8
BLACK
6
CONTINUOUS
10
163.687
20
-127.057
11
163.592
21
-126.867
0
LINE
8
BLACK
6
CONTINUOUS
10
163.592
20
-126.867
11
163.402
21
-126.771
0
LINE
8
BLACK
6
CONTINUOUS
10
163.402
20
-126.771
11
163.116
21
-126.771
0
LINE
8
BLACK
6
CONTINUOUS
10
163.116
20
-126.771
11
162.925
21
-126.867
0
LINE
8
BLACK
6
CONTINUOUS
10
162.925
20
-126.867
11
162.83
21
-126.962
0
LINE
8
BLACK
6
CONTINUOUS
10
164.925
20
-128.105
11
164.735
21
-128.01
0
LINE
8
BLACK
6
CONTINUOUS
10
164.735
20
-128.01
11
164.64
21
-127.914
0
LINE
8
BLACK
6
CONTINUOUS
10
164.64
20
-127.914
11
164.544
21
-127.724
0
LINE
8
BLACK
6
CONTINUOUS
10
164.544
20
-127.724
11
164.544
21
-127.152
0
LINE
8
BLACK
6
CONTINUOUS
10
164.544
20
-127.152
11
164.64
21
-126.962
0
LINE
8
BLACK
6
CONTINUOUS
10
164.64
20
-126.962
11
164.735
21
-126.867
0
LINE
8
BLACK
6
CONTINUOUS
10
164.735
20
-126.867
11
164.925
21
-126.771
0
LINE
8
BLACK
6
CONTINUOUS
10
164.925
20
-126.771
11
165.211
21
-126.771
0
LINE
8
BLACK
6
CONTINUOUS
10
165.211
20
-126.771
11
165.402
21
-126.867
0
LINE
8
BLACK
6
CONTINUOUS
10
165.402
20
-126.867
11
165.497
21
-126.962
0
LINE
8
BLACK
6
CONTINUOUS
10
165.497
20
-126.962
11
165.592
21
-127.152
0
LINE
8
BLACK
6
CONTINUOUS
10
165.592
20
-127.152
11
165.592
21
-127.724
0
LINE
8
BLACK
6
CONTINUOUS
10
165.592
20
-127.724
11
165.497
21
-127.914
0
LINE
8
BLACK
6
CONTINUOUS
10
165.497
20
-127.914
11
165.402
21
-128.01
0
LINE
8
BLACK
6
CONTINUOUS
10
165.402
20
-128.01
11
165.211
21
-128.105
0
LINE
8
BLACK
6
CONTINUOUS
10
165.211
20
-128.105
11
164.925
21
-128.105
0
LINE
8
BLACK
6
CONTINUOUS
10
166.735
20
-128.105
11
166.544
21
-128.01
0
LINE
8
BLACK
6
CONTINUOUS
10
166.544
20
-128.01
11
166.449
21
-127.819
0
LINE
8
BLACK
6
CONTINUOUS
10
166.449
20
-127.819
11
166.449
21
-126.105
0
LINE
8
BLACK
6
CONTINUOUS
10
168.259
20
-128.01
11
168.068
21
-128.105
0
LINE
8
BLACK
6
CONTINUOUS
10
168.068
20
-128.105
11
167.687
21
-128.105
0
LINE
8
BLACK
6
CONTINUOUS
10
167.687
20
-128.105
11
167.497
21
-128.01
0
LINE
8
BLACK
6
CONTINUOUS
10
167.497
20
-128.01
11
167.402
21
-127.819
0
LINE
8
BLACK
6
CONTINUOUS
10
167.402
20
-127.819
11
167.402
21
-127.057
0
LINE
8
BLACK
6
CONTINUOUS
10
167.402
20
-127.057
11
167.497
21
-126.867
0
LINE
8
BLACK
6
CONTINUOUS
10
167.497
20
-126.867
11
167.687
21
-126.771
0
LINE
8
BLACK
6
CONTINUOUS
10
167.687
20
-126.771
11
168.068
21
-126.771
0
LINE
8
BLACK
6
CONTINUOUS
10
168.068
20
-126.771
11
168.259
21
-126.867
0
LINE
8
BLACK
6
CONTINUOUS
10
168.259
20
-126.867
11
168.354
21
-127.057
0
LINE
8
BLACK
6
CONTINUOUS
10
168.354
20
-127.057
11
168.354
21
-127.248
0
LINE
8
BLACK
6
CONTINUOUS
10
168.354
20
-127.248
11
167.402
21
-127.438
0
LINE
8
BLACK
6
CONTINUOUS
10
169.116
20
-128.01
11
169.306
21
-128.105
0
LINE
8
BLACK
6
CONTINUOUS
10
169.306
20
-128.105
11
169.687
21
-128.105
0
LINE
8
BLACK
6
CONTINUOUS
10
169.687
20
-128.105
11
169.878
21
-128.01
0
LINE
8
BLACK
6
CONTINUOUS
10
169.878
20
-128.01
11
169.973
21
-127.819
0
LINE
8
BLACK
6
CONTINUOUS
10
169.973
20
-127.819
11
169.973
21
-127.724
0
LINE
8
BLACK
6
CONTINUOUS
10
169.973
20
-127.724
11
169.878
21
-127.533
0
LINE
8
BLACK
6
CONTINUOUS
10
169.878
20
-127.533
11
169.687
21
-127.438
0
LINE
8
BLACK
6
CONTINUOUS
10
169.687
20
-127.438
11
169.402
21
-127.438
0
LINE
8
BLACK
6
CONTINUOUS
10
169.402
20
-127.438
11
169.211
21
-127.343
0
LINE
8
BLACK
6
CONTINUOUS
10
169.211
20
-127.343
11
169.116
21
-127.152
0
LINE
8
BLACK
6
CONTINUOUS
10
169.116
20
-127.152
11
169.116
21
-127.057
0
LINE
8
BLACK
6
CONTINUOUS
10
169.116
20
-127.057
11
169.211
21
-126.867
0
LINE
8
BLACK
6
CONTINUOUS
10
169.211
20
-126.867
11
169.402
21
-126.771
0
LINE
8
BLACK
6
CONTINUOUS
10
169.402
20
-126.771
11
169.687
21
-126.771
0
LINE
8
BLACK
6
CONTINUOUS
10
169.687
20
-126.771
11
169.878
21
-126.867
0
LINE
8
BLACK
6
CONTINUOUS
10
172.354
20
-127.343
11
173.878
21
-127.343
0
LINE
8
BLACK
6
CONTINUOUS
10
173.116
20
-128.105
11
173.116
21
-126.581
0
LINE
8
BLACK
6
CONTINUOUS
10
177.211
20
-126.771
11
177.211
21
-128.105
0
LINE
8
BLACK
6
CONTINUOUS
10
176.735
20
-126.01
11
176.259
21
-127.438
0
LINE
8
BLACK
6
CONTINUOUS
10
176.259
20
-127.438
11
177.497
21
-127.438
0
LINE
8
BLACK
6
CONTINUOUS
10
179.687
20
-128.01
11
179.878
21
-128.105
0
LINE
8
BLACK
6
CONTINUOUS
10
179.878
20
-128.105
11
180.259
21
-128.105
0
LINE
8
BLACK
6
CONTINUOUS
10
180.259
20
-128.105
11
180.449
21
-128.01
0
LINE
8
BLACK
6
CONTINUOUS
10
180.449
20
-128.01
11
180.544
21
-127.819
0
LINE
8
BLACK
6
CONTINUOUS
10
180.544
20
-127.819
11
180.544
21
-127.724
0
LINE
8
BLACK
6
CONTINUOUS
10
180.544
20
-127.724
11
180.449
21
-127.533
0
LINE
8
BLACK
6
CONTINUOUS
10
180.449
20
-127.533
11
180.259
21
-127.438
0
LINE
8
BLACK
6
CONTINUOUS
10
180.259
20
-127.438
11
179.973
21
-127.438
0
LINE
8
BLACK
6
CONTINUOUS
10
179.973
20
-127.438
11
179.783
21
-127.343
0
LINE
8
BLACK
6
CONTINUOUS
10
179.783
20
-127.343
11
179.687
21
-127.152
0
LINE
8
BLACK
6
CONTINUOUS
10
179.687
20
-127.152
11
179.687
21
-127.057
0
LINE
8
BLACK
6
CONTINUOUS
10
179.687
20
-127.057
11
179.783
21
-126.867
0
LINE
8
BLACK
6
CONTINUOUS
10
179.783
20
-126.867
11
179.973
21
-126.771
0
LINE
8
BLACK
6
CONTINUOUS
10
179.973
20
-126.771
11
180.259
21
-126.771
0
LINE
8
BLACK
6
CONTINUOUS
10
180.259
20
-126.771
11
180.449
21
-126.867
0
LINE
8
BLACK
6
CONTINUOUS
10
181.687
20
-128.105
11
181.497
21
-128.01
0
LINE
8
BLACK
6
CONTINUOUS
10
181.497
20
-128.01
11
181.402
21
-127.819
0
LINE
8
BLACK
6
CONTINUOUS
10
181.402
20
-127.819
11
181.402
21
-126.105
0
LINE
8
BLACK
6
CONTINUOUS
10
182.735
20
-128.105
11
182.544
21
-128.01
0
LINE
8
BLACK
6
CONTINUOUS
10
182.544
20
-128.01
11
182.449
21
-127.914
0
LINE
8
BLACK
6
CONTINUOUS
10
182.449
20
-127.914
11
182.354
21
-127.724
0
LINE
8
BLACK
6
CONTINUOUS
10
182.354
20
-127.724
11
182.354
21
-127.152
0
LINE
8
BLACK
6
CONTINUOUS
10
182.354
20
-127.152
11
182.449
21
-126.962
0
LINE
8
BLACK
6
CONTINUOUS
10
182.449
20
-126.962
11
182.544
21
-126.867
0
LINE
8
BLACK
6
CONTINUOUS
10
182.544
20
-126.867
11
182.735
21
-126.771
0
LINE
8
BLACK
6
CONTINUOUS
10
182.735
20
-126.771
11
183.021
21
-126.771
0
LINE
8
BLACK
6
CONTINUOUS
10
183.021
20
-126.771
11
183.211
21
-126.867
0
LINE
8
BLACK
6
CONTINUOUS
10
183.211
20
-126.867
11
183.306
21
-126.962
0
LINE
8
BLACK
6
CONTINUOUS
10
183.306
20
-126.962
11
183.402
21
-127.152
0
LINE
8
BLACK
6
CONTINUOUS
10
183.402
20
-127.152
11
183.402
21
-127.724
0
LINE
8
BLACK
6
CONTINUOUS
10
183.402
20
-127.724
11
183.306
21
-127.914
0
LINE
8
BLACK
6
CONTINUOUS
10
183.306
20
-127.914
11
183.211
21
-128.01
0
LINE
8
BLACK
6
CONTINUOUS
10
183.211
20
-128.01
11
183.021
21
-128.105
0
LINE
8
BLACK
6
CONTINUOUS
10
183.021
20
-128.105
11
182.735
21
-128.105
0
LINE
8
BLACK
6
CONTINUOUS
10
183.973
20
-126.771
11
184.735
21
-126.771
0
LINE
8
BLACK
6
CONTINUOUS
10
184.259
20
-126.105
11
184.259
21
-127.819
0
LINE
8
BLACK
6
CONTINUOUS
10
184.259
20
-127.819
11
184.354
21
-128.01
0
LINE
8
BLACK
6
CONTINUOUS
10
184.354
20
-128.01
11
184.544
21
-128.105
0
LINE
8
BLACK
6
CONTINUOUS
10
184.544
20
-128.105
11
184.735
21
-128.105
0
LINE
8
BLACK
6
CONTINUOUS
10
185.306
20
-128.01
11
185.497
21
-128.105
0
LINE
8
BLACK
6
CONTINUOUS
10
185.497
20
-128.105
11
185.878
21
-128.105
0
LINE
8
BLACK
6
CONTINUOUS
10
185.878
20
-128.105
11
186.068
21
-128.01
0
LINE
8
BLACK
6
CONTINUOUS
10
186.068
20
-128.01
11
186.163
21
-127.819
0
LINE
8
BLACK
6
CONTINUOUS
10
186.163
20
-127.819
11
186.163
21
-127.724
0
LINE
8
BLACK
6
CONTINUOUS
10
186.163
20
-127.724
11
186.068
21
-127.533
0
LINE
8
BLACK
6
CONTINUOUS
10
186.068
20
-127.533
11
185.878
21
-127.438
0
LINE
8
BLACK
6
CONTINUOUS
10
185.878
20
-127.438
11
185.592
21
-127.438
0
LINE
8
BLACK
6
CONTINUOUS
10
185.592
20
-127.438
11
185.402
21
-127.343
0
LINE
8
BLACK
6
CONTINUOUS
10
185.402
20
-127.343
11
185.306
21
-127.152
0
LINE
8
BLACK
6
CONTINUOUS
10
185.306
20
-127.152
11
185.306
21
-127.057
0
LINE
8
BLACK
6
CONTINUOUS
10
185.306
20
-127.057
11
185.402
21
-126.867
0
LINE
8
BLACK
6
CONTINUOUS
10
185.402
20
-126.867
11
185.592
21
-126.771
0
LINE
8
BLACK
6
CONTINUOUS
10
185.592
20
-126.771
11
185.878
21
-126.771
0
LINE
8
BLACK
6
CONTINUOUS
10
185.878
20
-126.771
11
186.068
21
-126.867
0
LINE
8
BLACK
6
CONTINUOUS
10
186.83
20
-128.867
11
186.925
21
-128.771
0
LINE
8
BLACK
6
CONTINUOUS
10
186.925
20
-128.771
11
187.116
21
-128.486
0
LINE
8
BLACK
6
CONTINUOUS
10
187.116
20
-128.486
11
187.211
21
-128.295
0
LINE
8
BLACK
6
CONTINUOUS
10
187.211
20
-128.295
11
187.306
21
-128.01
0
LINE
8
BLACK
6
CONTINUOUS
10
187.306
20
-128.01
11
187.402
21
-127.533
0
LINE
8
BLACK
6
CONTINUOUS
10
187.402
20
-127.533
11
187.402
21
-127.152
0
LINE
8
BLACK
6
CONTINUOUS
10
187.402
20
-127.152
11
187.306
21
-126.676
0
LINE
8
BLACK
6
CONTINUOUS
10
187.306
20
-126.676
11
187.211
21
-126.39
0
LINE
8
BLACK
6
CONTINUOUS
10
187.211
20
-126.39
11
187.116
21
-126.2
0
LINE
8
BLACK
6
CONTINUOUS
10
187.116
20
-126.2
11
186.925
21
-125.914
0
LINE
8
BLACK
6
CONTINUOUS
10
186.925
20
-125.914
11
186.83
21
-125.819
0
CIRCLE
8
BLACK
10
122.721
20
-129.84
40
0.2
0
LINE
8
BLACK
6
CONTINUOUS
10
125.878
20
-128.745
11
126.068
21
-128.745
0
LINE
8
BLACK
6
CONTINUOUS
10
126.068
20
-128.745
11
126.259
21
-128.84
0
LINE
8
BLACK
6
CONTINUOUS
10
126.259
20
-128.84
11
126.354
21
-128.935
0
LINE
8
BLACK
6
CONTINUOUS
10
126.354
20
-128.935
11
126.449
21
-129.126
0
LINE
8
BLACK
6
CONTINUOUS
10
126.449
20
-129.126
11
126.544
21
-129.507
0
LINE
8
BLACK
6
CONTINUOUS
10
126.544
20
-129.507
11
126.544
21
-129.983
0
LINE
8
BLACK
6
CONTINUOUS
10
126.544
20
-129.983
11
126.449
21
-130.364
0
LINE
8
BLACK
6
CONTINUOUS
10
126.449
20
-130.364
11
126.354
21
-130.554
0
LINE
8
BLACK
6
CONTINUOUS
10
126.354
20
-130.554
11
126.259
21
-130.65
0
LINE
8
BLACK
6
CONTINUOUS
10
126.259
20
-130.65
11
126.068
21
-130.745
0
LINE
8
BLACK
6
CONTINUOUS
10
126.068
20
-130.745
11
125.878
21
-130.745
0
LINE
8
BLACK
6
CONTINUOUS
10
125.878
20
-130.745
11
125.687
21
-130.65
0
LINE
8
BLACK
6
CONTINUOUS
10
125.687
20
-130.65
11
125.592
21
-130.554
0
LINE
8
BLACK
6
CONTINUOUS
10
125.592
20
-130.554
11
125.497
21
-130.364
0
LINE
8
BLACK
6
CONTINUOUS
10
125.497
20
-130.364
11
125.402
21
-129.983
0
LINE
8
BLACK
6
CONTINUOUS
10
125.402
20
-129.983
11
125.402
21
-129.507
0
LINE
8
BLACK
6
CONTINUOUS
10
125.402
20
-129.507
11
125.497
21
-129.126
0
LINE
8
BLACK
6
CONTINUOUS
10
125.497
20
-129.126
11
125.592
21
-128.935
0
LINE
8
BLACK
6
CONTINUOUS
10
125.592
20
-128.935
11
125.687
21
-128.84
0
LINE
8
BLACK
6
CONTINUOUS
10
125.687
20
-128.84
11
125.878
21
-128.745
0
LINE
8
BLACK
6
CONTINUOUS
10
127.402
20
-130.554
11
127.497
21
-130.65
0
LINE
8
BLACK
6
CONTINUOUS
10
127.497
20
-130.65
11
127.402
21
-130.745
0
LINE
8
BLACK
6
CONTINUOUS
10
127.402
20
-130.745
11
127.306
21
-130.65
0
LINE
8
BLACK
6
CONTINUOUS
10
127.306
20
-130.65
11
127.402
21
-130.554
0
LINE
8
BLACK
6
CONTINUOUS
10
127.402
20
-130.554
11
127.402
21
-130.745
0
LINE
8
BLACK
6
CONTINUOUS
10
129.211
20
-129.411
11
129.211
21
-130.745
0
LINE
8
BLACK
6
CONTINUOUS
10
128.735
20
-128.65
11
128.259
21
-130.078
0
LINE
8
BLACK
6
CONTINUOUS
10
128.259
20
-130.078
11
129.497
21
-130.078
0
LINE
8
BLACK
6
CONTINUOUS
10
130.64
20
-128.745
11
130.83
21
-128.745
0
LINE
8
BLACK
6
CONTINUOUS
10
130.83
20
-128.745
11
131.021
21
-128.84
0
LINE
8
BLACK
6
CONTINUOUS
10
131.021
20
-128.84
11
131.116
21
-128.935
0
LINE
8
BLACK
6
CONTINUOUS
10
131.116
20
-128.935
11
131.211
21
-129.126
0
LINE
8
BLACK
6
CONTINUOUS
10
131.211
20
-129.126
11
131.306
21
-129.507
0
LINE
8
BLACK
6
CONTINUOUS
10
131.306
20
-129.507
11
131.306
21
-129.983
0
LINE
8
BLACK
6
CONTINUOUS
10
131.306
20
-129.983
11
131.211
21
-130.364
0
LINE
8
BLACK
6
CONTINUOUS
10
131.211
20
-130.364
11
131.116
21
-130.554
0
LINE
8
BLACK
6
CONTINUOUS
10
131.116
20
-130.554
11
131.021
21
-130.65
0
LINE
8
BLACK
6
CONTINUOUS
10
131.021
20
-130.65
11
130.83
21
-130.745
0
LINE
8
BLACK
6
CONTINUOUS
10
130.83
20
-130.745
11
130.64
21
-130.745
0
LINE
8
BLACK
6
CONTINUOUS
10
130.64
20
-130.745
11
130.449
21
-130.65
0
LINE
8
BLACK
6
CONTINUOUS
10
130.449
20
-130.65
11
130.354
21
-130.554
0
LINE
8
BLACK
6
CONTINUOUS
10
130.354
20
-130.554
11
130.259
21
-130.364
0
LINE
8
BLACK
6
CONTINUOUS
10
130.259
20
-130.364
11
130.163
21
-129.983
0
LINE
8
BLACK
6
CONTINUOUS
10
130.163
20
-129.983
11
130.163
21
-129.507
0
LINE
8
BLACK
6
CONTINUOUS
10
130.163
20
-129.507
11
130.259
21
-129.126
0
LINE
8
BLACK
6
CONTINUOUS
10
130.259
20
-129.126
11
130.354
21
-128.935
0
LINE
8
BLACK
6
CONTINUOUS
10
130.354
20
-128.935
11
130.449
21
-128.84
0
LINE
8
BLACK
6
CONTINUOUS
10
130.449
20
-128.84
11
130.64
21
-128.745
0
LINE
8
BLACK
6
CONTINUOUS
10
132.544
20
-128.745
11
132.735
21
-128.745
0
LINE
8
BLACK
6
CONTINUOUS
10
132.735
20
-128.745
11
132.925
21
-128.84
0
LINE
8
BLACK
6
CONTINUOUS
10
132.925
20
-128.84
11
133.021
21
-128.935
0
LINE
8
BLACK
6
CONTINUOUS
10
133.021
20
-128.935
11
133.116
21
-129.126
0
LINE
8
BLACK
6
CONTINUOUS
10
133.116
20
-129.126
11
133.211
21
-129.507
0
LINE
8
BLACK
6
CONTINUOUS
10
133.211
20
-129.507
11
133.211
21
-129.983
0
LINE
8
BLACK
6
CONTINUOUS
10
133.211
20
-129.983
11
133.116
21
-130.364
0
LINE
8
BLACK
6
CONTINUOUS
10
133.116
20
-130.364
11
133.021
21
-130.554
0
LINE
8
BLACK
6
CONTINUOUS
10
133.021
20
-130.554
11
132.925
21
-130.65
0
LINE
8
BLACK
6
CONTINUOUS
10
132.925
20
-130.65
11
132.735
21
-130.745
0
LINE
8
BLACK
6
CONTINUOUS
10
132.735
20
-130.745
11
132.544
21
-130.745
0
LINE
8
BLACK
6
CONTINUOUS
10
132.544
20
-130.745
11
132.354
21
-130.65
0
LINE
8
BLACK
6
CONTINUOUS
10
132.354
20
-130.65
11
132.259
21
-130.554
0
LINE
8
BLACK
6
CONTINUOUS
10
132.259
20
-130.554
11
132.163
21
-130.364
0
LINE
8
BLACK
6
CONTINUOUS
10
132.163
20
-130.364
11
132.068
21
-129.983
0
LINE
8
BLACK
6
CONTINUOUS
10
132.068
20
-129.983
11
132.068
21
-129.507
0
LINE
8
BLACK
6
CONTINUOUS
10
132.068
20
-129.507
11
132.163
21
-129.126
0
LINE
8
BLACK
6
CONTINUOUS
10
132.163
20
-129.126
11
132.259
21
-128.935
0
LINE
8
BLACK
6
CONTINUOUS
10
132.259
20
-128.935
11
132.354
21
-128.84
0
LINE
8
BLACK
6
CONTINUOUS
10
132.354
20
-128.84
11
132.544
21
-128.745
0
LINE
8
BLACK
6
CONTINUOUS
10
134.068
20
-130.745
11
134.068
21
-129.411
0
LINE
8
BLACK
6
CONTINUOUS
10
134.068
20
-129.602
11
134.163
21
-129.507
0
LINE
8
BLACK
6
CONTINUOUS
10
134.163
20
-129.507
11
134.354
21
-129.411
0
LINE
8
BLACK
6
CONTINUOUS
10
134.354
20
-129.411
11
134.64
21
-129.411
0
LINE
8
BLACK
6
CONTINUOUS
10
134.64
20
-129.411
11
134.83
21
-129.507
0
LINE
8
BLACK
6
CONTINUOUS
10
134.83
20
-129.507
11
134.925
21
-129.697
0
LINE
8
BLACK
6
CONTINUOUS
10
134.925
20
-129.697
11
134.925
21
-130.745
0
LINE
8
BLACK
6
CONTINUOUS
10
134.925
20
-129.697
11
135.021
21
-129.507
0
LINE
8
BLACK
6
CONTINUOUS
10
135.021
20
-129.507
11
135.211
21
-129.411
0
LINE
8
BLACK
6
CONTINUOUS
10
135.211
20
-129.411
11
135.497
21
-129.411
0
LINE
8
BLACK
6
CONTINUOUS
10
135.497
20
-129.411
11
135.687
21
-129.507
0
LINE
8
BLACK
6
CONTINUOUS
10
135.687
20
-129.507
11
135.783
21
-129.697
0
LINE
8
BLACK
6
CONTINUOUS
10
135.783
20
-129.697
11
135.783
21
-130.745
0
LINE
8
BLACK
6
CONTINUOUS
10
136.735
20
-130.745
11
136.735
21
-129.411
0
LINE
8
BLACK
6
CONTINUOUS
10
136.735
20
-129.602
11
136.83
21
-129.507
0
LINE
8
BLACK
6
CONTINUOUS
10
136.83
20
-129.507
11
137.021
21
-129.411
0
LINE
8
BLACK
6
CONTINUOUS
10
137.021
20
-129.411
11
137.306
21
-129.411
0
LINE
8
BLACK
6
CONTINUOUS
10
137.306
20
-129.411
11
137.497
21
-129.507
0
LINE
8
BLACK
6
CONTINUOUS
10
137.497
20
-129.507
11
137.592
21
-129.697
0
LINE
8
BLACK
6
CONTINUOUS
10
137.592
20
-129.697
11
137.592
21
-130.745
0
LINE
8
BLACK
6
CONTINUOUS
10
137.592
20
-129.697
11
137.687
21
-129.507
0
LINE
8
BLACK
6
CONTINUOUS
10
137.687
20
-129.507
11
137.878
21
-129.411
0
LINE
8
BLACK
6
CONTINUOUS
10
137.878
20
-129.411
11
138.163
21
-129.411
0
LINE
8
BLACK
6
CONTINUOUS
10
138.163
20
-129.411
11
138.354
21
-129.507
0
LINE
8
BLACK
6
CONTINUOUS
10
138.354
20
-129.507
11
138.449
21
-129.697
0
LINE
8
BLACK
6
CONTINUOUS
10
138.449
20
-129.697
11
138.449
21
-130.745
0
LINE
8
BLACK
6
CONTINUOUS
10
142.354
20
-128.65
11
140.64
21
-131.221
0
LINE
8
BLACK
6
CONTINUOUS
10
144.925
20
-128.745
11
145.116
21
-128.745
0
LINE
8
BLACK
6
CONTINUOUS
10
145.116
20
-128.745
11
145.306
21
-128.84
0
LINE
8
BLACK
6
CONTINUOUS
10
145.306
20
-128.84
11
145.402
21
-128.935
0
LINE
8
BLACK
6
CONTINUOUS
10
145.402
20
-128.935
11
145.497
21
-129.126
0
LINE
8
BLACK
6
CONTINUOUS
10
145.497
20
-129.126
11
145.592
21
-129.507
0
LINE
8
BLACK
6
CONTINUOUS
10
145.592
20
-129.507
11
145.592
21
-129.983
0
LINE
8
BLACK
6
CONTINUOUS
10
145.592
20
-129.983
11
145.497
21
-130.364
0
LINE
8
BLACK
6
CONTINUOUS
10
145.497
20
-130.364
11
145.402
21
-130.554
0
LINE
8
BLACK
6
CONTINUOUS
10
145.402
20
-130.554
11
145.306
21
-130.65
0
LINE
8
BLACK
6
CONTINUOUS
10
145.306
20
-130.65
11
145.116
21
-130.745
0
LINE
8
BLACK
6
CONTINUOUS
10
145.116
20
-130.745
11
144.925
21
-130.745
0
LINE
8
BLACK
6
CONTINUOUS
10
144.925
20
-130.745
11
144.735
21
-130.65
0
LINE
8
BLACK
6
CONTINUOUS
10
144.735
20
-130.65
11
144.64
21
-130.554
0
LINE
8
BLACK
6
CONTINUOUS
10
144.64
20
-130.554
11
144.544
21
-130.364
0
LINE
8
BLACK
6
CONTINUOUS
10
144.544
20
-130.364
11
144.449
21
-129.983
0
LINE
8
BLACK
6
CONTINUOUS
10
144.449
20
-129.983
11
144.449
21
-129.507
0
LINE
8
BLACK
6
CONTINUOUS
10
144.449
20
-129.507
11
144.544
21
-129.126
0
LINE
8
BLACK
6
CONTINUOUS
10
144.544
20
-129.126
11
144.64
21
-128.935
0
LINE
8
BLACK
6
CONTINUOUS
10
144.64
20
-128.935
11
144.735
21
-128.84
0
LINE
8
BLACK
6
CONTINUOUS
10
144.735
20
-128.84
11
144.925
21
-128.745
0
LINE
8
BLACK
6
CONTINUOUS
10
146.449
20
-130.554
11
146.544
21
-130.65
0
LINE
8
BLACK
6
CONTINUOUS
10
146.544
20
-130.65
11
146.449
21
-130.745
0
LINE
8
BLACK
6
CONTINUOUS
10
146.449
20
-130.745
11
146.354
21
-130.65
0
LINE
8
BLACK
6
CONTINUOUS
10
146.354
20
-130.65
11
146.449
21
-130.554
0
LINE
8
BLACK
6
CONTINUOUS
10
146.449
20
-130.554
11
146.449
21
-130.745
0
LINE
8
BLACK
6
CONTINUOUS
10
147.783
20
-128.745
11
147.973
21
-128.745
0
LINE
8
BLACK
6
CONTINUOUS
10
147.973
20
-128.745
11
148.163
21
-128.84
0
LINE
8
BLACK
6
CONTINUOUS
10
148.163
20
-128.84
11
148.259
21
-128.935
0
LINE
8
BLACK
6
CONTINUOUS
10
148.259
20
-128.935
11
148.354
21
-129.126
0
LINE
8
BLACK
6
CONTINUOUS
10
148.354
20
-129.126
11
148.449
21
-129.507
0
LINE
8
BLACK
6
CONTINUOUS
10
148.449
20
-129.507
11
148.449
21
-129.983
0
LINE
8
BLACK
6
CONTINUOUS
10
148.449
20
-129.983
11
148.354
21
-130.364
0
LINE
8
BLACK
6
CONTINUOUS
10
148.354
20
-130.364
11
148.259
21
-130.554
0
LINE
8
BLACK
6
CONTINUOUS
10
148.259
20
-130.554
11
148.163
21
-130.65
0
LINE
8
BLACK
6
CONTINUOUS
10
148.163
20
-130.65
11
147.973
21
-130.745
0
LINE
8
BLACK
6
CONTINUOUS
10
147.973
20
-130.745
11
147.783
21
-130.745
0
LINE
8
BLACK
6
CONTINUOUS
10
147.783
20
-130.745
11
147.592
21
-130.65
0
LINE
8
BLACK
6
CONTINUOUS
10
147.592
20
-130.65
11
147.497
21
-130.554
0
LINE
8
BLACK
6
CONTINUOUS
10
147.497
20
-130.554
11
147.402
21
-130.364
0
LINE
8
BLACK
6
CONTINUOUS
10
147.402
20
-130.364
11
147.306
21
-129.983
0
LINE
8
BLACK
6
CONTINUOUS
10
147.306
20
-129.983
11
147.306
21
-129.507
0
LINE
8
BLACK
6
CONTINUOUS
10
147.306
20
-129.507
11
147.402
21
-129.126
0
LINE
8
BLACK
6
CONTINUOUS
10
147.402
20
-129.126
11
147.497
21
-128.935
0
LINE
8
BLACK
6
CONTINUOUS
10
147.497
20
-128.935
11
147.592
21
-128.84
0
LINE
8
BLACK
6
CONTINUOUS
10
147.592
20
-128.84
11
147.783
21
-128.745
0
LINE
8
BLACK
6
CONTINUOUS
10
150.354
20
-130.745
11
149.211
21
-130.745
0
LINE
8
BLACK
6
CONTINUOUS
10
149.783
20
-130.745
11
149.783
21
-128.745
0
LINE
8
BLACK
6
CONTINUOUS
10
149.783
20
-128.745
11
149.592
21
-129.03
0
LINE
8
BLACK
6
CONTINUOUS
10
149.592
20
-129.03
11
149.402
21
-129.221
0
LINE
8
BLACK
6
CONTINUOUS
10
149.402
20
-129.221
11
149.211
21
-129.316
0
LINE
8
BLACK
6
CONTINUOUS
10
152.163
20
-128.745
11
151.211
21
-128.745
0
LINE
8
BLACK
6
CONTINUOUS
10
151.211
20
-128.745
11
151.116
21
-129.697
0
LINE
8
BLACK
6
CONTINUOUS
10
151.116
20
-129.697
11
151.211
21
-129.602
0
LINE
8
BLACK
6
CONTINUOUS
10
151.211
20
-129.602
11
151.402
21
-129.507
0
LINE
8
BLACK
6
CONTINUOUS
10
151.402
20
-129.507
11
151.878
21
-129.507
0
LINE
8
BLACK
6
CONTINUOUS
10
151.878
20
-129.507
11
152.068
21
-129.602
0
LINE
8
BLACK
6
CONTINUOUS
10
152.068
20
-129.602
11
152.163
21
-129.697
0
LINE
8
BLACK
6
CONTINUOUS
10
152.163
20
-129.697
11
152.259
21
-129.888
0
LINE
8
BLACK
6
CONTINUOUS
10
152.259
20
-129.888
11
152.259
21
-130.364
0
LINE
8
BLACK
6
CONTINUOUS
10
152.259
20
-130.364
11
152.163
21
-130.554
0
LINE
8
BLACK
6
CONTINUOUS
10
152.163
20
-130.554
11
152.068
21
-130.65
0
LINE
8
BLACK
6
CONTINUOUS
10
152.068
20
-130.65
11
151.878
21
-130.745
0
LINE
8
BLACK
6
CONTINUOUS
10
151.878
20
-130.745
11
151.402
21
-130.745
0
LINE
8
BLACK
6
CONTINUOUS
10
151.402
20
-130.745
11
151.211
21
-130.65
0
LINE
8
BLACK
6
CONTINUOUS
10
151.211
20
-130.65
11
151.116
21
-130.554
0
LINE
8
BLACK
6
CONTINUOUS
10
152.925
20
-128.745
11
154.259
21
-128.745
0
LINE
8
BLACK
6
CONTINUOUS
10
154.259
20
-128.745
11
153.402
21
-130.745
0
LINE
8
BLACK
6
CONTINUOUS
10
154.925
20
-128.745
11
154.925
21
-129.126
0
LINE
8
BLACK
6
CONTINUOUS
10
155.687
20
-128.745
11
155.687
21
-129.126
0
LINE
8
BLACK
6
CONTINUOUS
10
158.64
20
-131.507
11
158.544
21
-131.411
0
LINE
8
BLACK
6
CONTINUOUS
10
158.544
20
-131.411
11
158.354
21
-131.126
0
LINE
8
BLACK
6
CONTINUOUS
10
158.354
20
-131.126
11
158.259
21
-130.935
0
LINE
8
BLACK
6
CONTINUOUS
10
158.259
20
-130.935
11
158.163
21
-130.65
0
LINE
8
BLACK
6
CONTINUOUS
10
158.163
20
-130.65
11
158.068
21
-130.173
0
LINE
8
BLACK
6
CONTINUOUS
10
158.068
20
-130.173
11
158.068
21
-129.792
0
LINE
8
BLACK
6
CONTINUOUS
10
158.068
20
-129.792
11
158.163
21
-129.316
0
LINE
8
BLACK
6
CONTINUOUS
10
158.163
20
-129.316
11
158.259
21
-129.03
0
LINE
8
BLACK
6
CONTINUOUS
10
158.259
20
-129.03
11
158.354
21
-128.84
0
LINE
8
BLACK
6
CONTINUOUS
10
158.354
20
-128.84
11
158.544
21
-128.554
0
LINE
8
BLACK
6
CONTINUOUS
10
158.544
20
-128.554
11
158.64
21
-128.459
0
LINE
8
BLACK
6
CONTINUOUS
10
159.306
20
-128.935
11
159.402
21
-128.84
0
LINE
8
BLACK
6
CONTINUOUS
10
159.402
20
-128.84
11
159.592
21
-128.745
0
LINE
8
BLACK
6
CONTINUOUS
10
159.592
20
-128.745
11
160.068
21
-128.745
0
LINE
8
BLACK
6
CONTINUOUS
10
160.068
20
-128.745
11
160.259
21
-128.84
0
LINE
8
BLACK
6
CONTINUOUS
10
160.259
20
-128.84
11
160.354
21
-128.935
0
LINE
8
BLACK
6
CONTINUOUS
10
160.354
20
-128.935
11
160.449
21
-129.126
0
LINE
8
BLACK
6
CONTINUOUS
10
160.449
20
-129.126
11
160.449
21
-129.316
0
LINE
8
BLACK
6
CONTINUOUS
10
160.449
20
-129.316
11
160.354
21
-129.602
0
LINE
8
BLACK
6
CONTINUOUS
10
160.354
20
-129.602
11
159.211
21
-130.745
0
LINE
8
BLACK
6
CONTINUOUS
10
159.211
20
-130.745
11
160.449
21
-130.745
0
LINE
8
BLACK
6
CONTINUOUS
10
161.211
20
-128.935
11
161.306
21
-128.84
0
LINE
8
BLACK
6
CONTINUOUS
10
161.306
20
-128.84
11
161.497
21
-128.745
0
LINE
8
BLACK
6
CONTINUOUS
10
161.497
20
-128.745
11
161.973
21
-128.745
0
LINE
8
BLACK
6
CONTINUOUS
10
161.973
20
-128.745
11
162.163
21
-128.84
0
LINE
8
BLACK
6
CONTINUOUS
10
162.163
20
-128.84
11
162.259
21
-128.935
0
LINE
8
BLACK
6
CONTINUOUS
10
162.259
20
-128.935
11
162.354
21
-129.126
0
LINE
8
BLACK
6
CONTINUOUS
10
162.354
20
-129.126
11
162.354
21
-129.316
0
LINE
8
BLACK
6
CONTINUOUS
10
162.354
20
-129.316
11
162.259
21
-129.602
0
LINE
8
BLACK
6
CONTINUOUS
10
162.259
20
-129.602
11
161.116
21
-130.745
0
LINE
8
BLACK
6
CONTINUOUS
10
161.116
20
-130.745
11
162.354
21
-130.745
0
LINE
8
BLACK
6
CONTINUOUS
10
164.735
20
-130.745
11
164.735
21
-128.745
0
LINE
8
BLACK
6
CONTINUOUS
10
165.592
20
-130.745
11
165.592
21
-129.697
0
LINE
8
BLACK
6
CONTINUOUS
10
165.592
20
-129.697
11
165.497
21
-129.507
0
LINE
8
BLACK
6
CONTINUOUS
10
165.497
20
-129.507
11
165.306
21
-129.411
0
LINE
8
BLACK
6
CONTINUOUS
10
165.306
20
-129.411
11
165.021
21
-129.411
0
LINE
8
BLACK
6
CONTINUOUS
10
165.021
20
-129.411
11
164.83
21
-129.507
0
LINE
8
BLACK
6
CONTINUOUS
10
164.83
20
-129.507
11
164.735
21
-129.602
0
LINE
8
BLACK
6
CONTINUOUS
10
166.83
20
-130.745
11
166.64
21
-130.65
0
LINE
8
BLACK
6
CONTINUOUS
10
166.64
20
-130.65
11
166.544
21
-130.554
0
LINE
8
BLACK
6
CONTINUOUS
10
166.544
20
-130.554
11
166.449
21
-130.364
0
LINE
8
BLACK
6
CONTINUOUS
10
166.449
20
-130.364
11
166.449
21
-129.792
0
LINE
8
BLACK
6
CONTINUOUS
10
166.449
20
-129.792
11
166.544
21
-129.602
0
LINE
8
BLACK
6
CONTINUOUS
10
166.544
20
-129.602
11
166.64
21
-129.507
0
LINE
8
BLACK
6
CONTINUOUS
10
166.64
20
-129.507
11
166.83
21
-129.411
0
LINE
8
BLACK
6
CONTINUOUS
10
166.83
20
-129.411
11
167.116
21
-129.411
0
LINE
8
BLACK
6
CONTINUOUS
10
167.116
20
-129.411
11
167.306
21
-129.507
0
LINE
8
BLACK
6
CONTINUOUS
10
167.306
20
-129.507
11
167.402
21
-129.602
0
LINE
8
BLACK
6
CONTINUOUS
10
167.402
20
-129.602
11
167.497
21
-129.792
0
LINE
8
BLACK
6
CONTINUOUS
10
167.497
20
-129.792
11
167.497
21
-130.364
0
LINE
8
BLACK
6
CONTINUOUS
10
167.497
20
-130.364
11
167.402
21
-130.554
0
LINE
8
BLACK
6
CONTINUOUS
10
167.402
20
-130.554
11
167.306
21
-130.65
0
LINE
8
BLACK
6
CONTINUOUS
10
167.306
20
-130.65
11
167.116
21
-130.745
0
LINE
8
BLACK
6
CONTINUOUS
10
167.116
20
-130.745
11
166.83
21
-130.745
0
LINE
8
BLACK
6
CONTINUOUS
10
168.64
20
-130.745
11
168.449
21
-130.65
0
LINE
8
BLACK
6
CONTINUOUS
10
168.449
20
-130.65
11
168.354
21
-130.459
0
LINE
8
BLACK
6
CONTINUOUS
10
168.354
20
-130.459
11
168.354
21
-128.745
0
LINE
8
BLACK
6
CONTINUOUS
10
170.163
20
-130.65
11
169.973
21
-130.745
0
LINE
8
BLACK
6
CONTINUOUS
10
169.973
20
-130.745
11
169.592
21
-130.745
0
LINE
8
BLACK
6
CONTINUOUS
10
169.592
20
-130.745
11
169.402
21
-130.65
0
LINE
8
BLACK
6
CONTINUOUS
10
169.402
20
-130.65
11
169.306
21
-130.459
0
LINE
8
BLACK
6
CONTINUOUS
10
169.306
20
-130.459
11
169.306
21
-129.697
0
LINE
8
BLACK
6
CONTINUOUS
10
169.306
20
-129.697
11
169.402
21
-129.507
0
LINE
8
BLACK
6
CONTINUOUS
10
169.402
20
-129.507
11
169.592
21
-129.411
0
LINE
8
BLACK
6
CONTINUOUS
10
169.592
20
-129.411
11
169.973
21
-129.411
0
LINE
8
BLACK
6
CONTINUOUS
10
169.973
20
-129.411
11
170.163
21
-129.507
0
LINE
8
BLACK
6
CONTINUOUS
10
170.163
20
-129.507
11
170.259
21
-129.697
0
LINE
8
BLACK
6
CONTINUOUS
10
170.259
20
-129.697
11
170.259
21
-129.888
0
LINE
8
BLACK
6
CONTINUOUS
10
170.259
20
-129.888
11
169.306
21
-130.078
0
LINE
8
BLACK
6
CONTINUOUS
10
171.021
20
-130.65
11
171.211
21
-130.745
0
LINE
8
BLACK
6
CONTINUOUS
10
171.211
20
-130.745
11
171.592
21
-130.745
0
LINE
8
BLACK
6
CONTINUOUS
10
171.592
20
-130.745
11
171.783
21
-130.65
0
LINE
8
BLACK
6
CONTINUOUS
10
171.783
20
-130.65
11
171.878
21
-130.459
0
LINE
8
BLACK
6
CONTINUOUS
10
171.878
20
-130.459
11
171.878
21
-130.364
0
LINE
8
BLACK
6
CONTINUOUS
10
171.878
20
-130.364
11
171.783
21
-130.173
0
LINE
8
BLACK
6
CONTINUOUS
10
171.783
20
-130.173
11
171.592
21
-130.078
0
LINE
8
BLACK
6
CONTINUOUS
10
171.592
20
-130.078
11
171.306
21
-130.078
0
LINE
8
BLACK
6
CONTINUOUS
10
171.306
20
-130.078
11
171.116
21
-129.983
0
LINE
8
BLACK
6
CONTINUOUS
10
171.116
20
-129.983
11
171.021
21
-129.792
0
LINE
8
BLACK
6
CONTINUOUS
10
171.021
20
-129.792
11
171.021
21
-129.697
0
LINE
8
BLACK
6
CONTINUOUS
10
171.021
20
-129.697
11
171.116
21
-129.507
0
LINE
8
BLACK
6
CONTINUOUS
10
171.116
20
-129.507
11
171.306
21
-129.411
0
LINE
8
BLACK
6
CONTINUOUS
10
171.306
20
-129.411
11
171.592
21
-129.411
0
LINE
8
BLACK
6
CONTINUOUS
10
171.592
20
-129.411
11
171.783
21
-129.507
0
LINE
8
BLACK
6
CONTINUOUS
10
172.544
20
-131.507
11
172.64
21
-131.411
0
LINE
8
BLACK
6
CONTINUOUS
10
172.64
20
-131.411
11
172.83
21
-131.126
0
LINE
8
BLACK
6
CONTINUOUS
10
172.83
20
-131.126
11
172.925
21
-130.935
0
LINE
8
BLACK
6
CONTINUOUS
10
172.925
20
-130.935
11
173.021
21
-130.65
0
LINE
8
BLACK
6
CONTINUOUS
10
173.021
20
-130.65
11
173.116
21
-130.173
0
LINE
8
BLACK
6
CONTINUOUS
10
173.116
20
-130.173
11
173.116
21
-129.792
0
LINE
8
BLACK
6
CONTINUOUS
10
173.116
20
-129.792
11
173.021
21
-129.316
0
LINE
8
BLACK
6
CONTINUOUS
10
173.021
20
-129.316
11
172.925
21
-129.03
0
LINE
8
BLACK
6
CONTINUOUS
10
172.925
20
-129.03
11
172.83
21
-128.84
0
LINE
8
BLACK
6
CONTINUOUS
10
172.83
20
-128.84
11
172.64
21
-128.554
0
LINE
8
BLACK
6
CONTINUOUS
10
172.64
20
-128.554
11
172.544
21
-128.459
  0
ENDSEC
  0
EOF
