%TF.GenerationSoftware,KiCad,Pcbnew,(6.0.11-0)*%
%TF.CreationDate,2024-05-30T12:39:56+08:00*%
%TF.ProjectId,tinyAVR-wristwatch,74696e79-4156-4522-9d77-726973747761,rev?*%
%TF.SameCoordinates,Original*%
%TF.FileFunction,Legend,Bot*%
%TF.FilePolarity,Positive*%
%FSLAX46Y46*%
G04 Gerber Fmt 4.6, Leading zero omitted, Abs format (unit mm)*
G04 Created by KiCad (PCBNEW (6.0.11-0)) date 2024-05-30 12:39:56*
%MOMM*%
%LPD*%
G01*
G04 APERTURE LIST*
%ADD10C,0.150000*%
%ADD11C,0.127000*%
%ADD12C,0.126000*%
G04 APERTURE END LIST*
D10*
X135928571Y-81047619D02*
X136166666Y-80047619D01*
X136357142Y-80761904D01*
X136547619Y-80047619D01*
X136785714Y-81047619D01*
X137595238Y-80047619D02*
X137595238Y-80571428D01*
X137547619Y-80666666D01*
X137452380Y-80714285D01*
X137261904Y-80714285D01*
X137166666Y-80666666D01*
X137595238Y-80095238D02*
X137500000Y-80047619D01*
X137261904Y-80047619D01*
X137166666Y-80095238D01*
X137119047Y-80190476D01*
X137119047Y-80285714D01*
X137166666Y-80380952D01*
X137261904Y-80428571D01*
X137500000Y-80428571D01*
X137595238Y-80476190D01*
X137976190Y-80714285D02*
X138214285Y-80047619D01*
X138452380Y-80714285D02*
X138214285Y-80047619D01*
X138119047Y-79809523D01*
X138071428Y-79761904D01*
X137976190Y-79714285D01*
X138738095Y-81047619D02*
X138976190Y-80047619D01*
X139166666Y-80761904D01*
X139357142Y-80047619D01*
X139595238Y-81047619D01*
X140404761Y-80047619D02*
X140404761Y-80571428D01*
X140357142Y-80666666D01*
X140261904Y-80714285D01*
X140071428Y-80714285D01*
X139976190Y-80666666D01*
X140404761Y-80095238D02*
X140309523Y-80047619D01*
X140071428Y-80047619D01*
X139976190Y-80095238D01*
X139928571Y-80190476D01*
X139928571Y-80285714D01*
X139976190Y-80380952D01*
X140071428Y-80428571D01*
X140309523Y-80428571D01*
X140404761Y-80476190D01*
X140785714Y-80714285D02*
X141023809Y-80047619D01*
X141261904Y-80714285D02*
X141023809Y-80047619D01*
X140928571Y-79809523D01*
X140880952Y-79761904D01*
X140785714Y-79714285D01*
X141547619Y-81047619D02*
X141785714Y-80047619D01*
X141976190Y-80761904D01*
X142166666Y-80047619D01*
X142404761Y-81047619D01*
X143214285Y-80047619D02*
X143214285Y-80571428D01*
X143166666Y-80666666D01*
X143071428Y-80714285D01*
X142880952Y-80714285D01*
X142785714Y-80666666D01*
X143214285Y-80095238D02*
X143119047Y-80047619D01*
X142880952Y-80047619D01*
X142785714Y-80095238D01*
X142738095Y-80190476D01*
X142738095Y-80285714D01*
X142785714Y-80380952D01*
X142880952Y-80428571D01*
X143119047Y-80428571D01*
X143214285Y-80476190D01*
X143595238Y-80714285D02*
X143833333Y-80047619D01*
X144071428Y-80714285D02*
X143833333Y-80047619D01*
X143738095Y-79809523D01*
X143690476Y-79761904D01*
X143595238Y-79714285D01*
%TO.C,SW1*%
X152094164Y-89883867D02*
X151994256Y-89996535D01*
X151788059Y-90115582D01*
X151681771Y-90121962D01*
X151616722Y-90104532D01*
X151527864Y-90045863D01*
X151480245Y-89963385D01*
X151473865Y-89857097D01*
X151491295Y-89792048D01*
X151549964Y-89703189D01*
X151691112Y-89566712D01*
X151749781Y-89477854D01*
X151767210Y-89412805D01*
X151760831Y-89306517D01*
X151713212Y-89224038D01*
X151624353Y-89165369D01*
X151559304Y-89147939D01*
X151453016Y-89154319D01*
X151246820Y-89273367D01*
X151146911Y-89386034D01*
X150834427Y-89511462D02*
X151128230Y-90496535D01*
X150606130Y-89973183D01*
X150798316Y-90687011D01*
X150092119Y-89940033D01*
X149808572Y-91258440D02*
X150303444Y-90972725D01*
X150056008Y-91115582D02*
X149556008Y-90249557D01*
X149709915Y-90325656D01*
X149840013Y-90360515D01*
X149946301Y-90354136D01*
%TO.C,SW2*%
X149947680Y-108736997D02*
X150095207Y-108767186D01*
X150301404Y-108886234D01*
X150360073Y-108975092D01*
X150377503Y-109040141D01*
X150371123Y-109146429D01*
X150323504Y-109228908D01*
X150234646Y-109287577D01*
X150169597Y-109305006D01*
X150063309Y-109298627D01*
X149874542Y-109244628D01*
X149768254Y-109238248D01*
X149703205Y-109255678D01*
X149614347Y-109314347D01*
X149566728Y-109396826D01*
X149560348Y-109503114D01*
X149577778Y-109568163D01*
X149636447Y-109657021D01*
X149842643Y-109776069D01*
X149990171Y-109806258D01*
X150255036Y-110014164D02*
X150961233Y-109267186D01*
X150769047Y-109981014D01*
X151291147Y-109457662D01*
X150997344Y-110442735D01*
X151333638Y-110526923D02*
X151351068Y-110591972D01*
X151409737Y-110680830D01*
X151615933Y-110799878D01*
X151722221Y-110806258D01*
X151787270Y-110788828D01*
X151876129Y-110730159D01*
X151923748Y-110647680D01*
X151953937Y-110500153D01*
X151744780Y-109719567D01*
X152280891Y-110029091D01*
%TO.C,SW1*%
X155474038Y-91799519D02*
X154737917Y-92224519D01*
X153908975Y-94088750D02*
X153164193Y-94518750D01*
X151958975Y-90711250D02*
X151214193Y-91141250D01*
X154912917Y-92527628D02*
X153812917Y-90622372D01*
X154724038Y-90500481D02*
X155474038Y-91799519D01*
X154724038Y-90500481D02*
X153987917Y-90925481D01*
D11*
%TO.C,BT1*%
X134500000Y-107950000D02*
X132800000Y-107950000D01*
D12*
X133000000Y-92450000D02*
X135000000Y-92450000D01*
D10*
X147200000Y-107950000D02*
X150200000Y-104950000D01*
D11*
X150200000Y-103100000D02*
X150200000Y-104950000D01*
X150200000Y-95000000D02*
X147000000Y-92450000D01*
X133000000Y-92450000D02*
X129800000Y-95000000D01*
D10*
X132800000Y-107950000D02*
X129800000Y-104950000D01*
D11*
X129800000Y-104950000D02*
X129800000Y-103100000D01*
X145000000Y-92450000D02*
X147000000Y-92450000D01*
X150200000Y-95000000D02*
X150200000Y-96800000D01*
X147200000Y-107950000D02*
X145500000Y-107950000D01*
X129800000Y-95000000D02*
X129800000Y-96800000D01*
D10*
%TO.C,SW2*%
X155629923Y-108000481D02*
X154879923Y-109299519D01*
X154879923Y-109299519D02*
X154143802Y-108874519D01*
X152114860Y-109088750D02*
X151370078Y-108658750D01*
X154064860Y-105711250D02*
X153320078Y-105281250D01*
X155629923Y-108000481D02*
X154893802Y-107575481D01*
X153968802Y-109177628D02*
X155068802Y-107272372D01*
%TD*%
M02*
