%TF.GenerationSoftware,KiCad,Pcbnew,(6.0.11-0)*%
%TF.CreationDate,2024-05-30T12:39:56+08:00*%
%TF.ProjectId,tinyAVR-wristwatch,74696e79-4156-4522-9d77-726973747761,rev?*%
%TF.SameCoordinates,Original*%
%TF.FileFunction,Soldermask,Top*%
%TF.FilePolarity,Negative*%
%FSLAX46Y46*%
G04 Gerber Fmt 4.6, Leading zero omitted, Abs format (unit mm)*
G04 Created by KiCad (PCBNEW (6.0.11-0)) date 2024-05-30 12:39:56*
%MOMM*%
%LPD*%
G01*
G04 APERTURE LIST*
G04 Aperture macros list*
%AMRoundRect*
0 Rectangle with rounded corners*
0 $1 Rounding radius*
0 $2 $3 $4 $5 $6 $7 $8 $9 X,Y pos of 4 corners*
0 Add a 4 corners polygon primitive as box body*
4,1,4,$2,$3,$4,$5,$6,$7,$8,$9,$2,$3,0*
0 Add four circle primitives for the rounded corners*
1,1,$1+$1,$2,$3*
1,1,$1+$1,$4,$5*
1,1,$1+$1,$6,$7*
1,1,$1+$1,$8,$9*
0 Add four rect primitives between the rounded corners*
20,1,$1+$1,$2,$3,$4,$5,0*
20,1,$1+$1,$4,$5,$6,$7,0*
20,1,$1+$1,$6,$7,$8,$9,0*
20,1,$1+$1,$8,$9,$2,$3,0*%
%AMHorizOval*
0 Thick line with rounded ends*
0 $1 width*
0 $2 $3 position (X,Y) of the first rounded end (center of the circle)*
0 $4 $5 position (X,Y) of the second rounded end (center of the circle)*
0 Add line between two ends*
20,1,$1,$2,$3,$4,$5,0*
0 Add two circle primitives to create the rounded ends*
1,1,$1,$2,$3*
1,1,$1,$4,$5*%
G04 Aperture macros list end*
%ADD10RoundRect,0.218750X-0.317568X-0.112544X0.061318X-0.331294X0.317568X0.112544X-0.061318X0.331294X0*%
%ADD11RoundRect,0.218750X0.317568X0.112544X-0.061318X0.331294X-0.317568X-0.112544X0.061318X-0.331294X0*%
%ADD12RoundRect,0.200000X-0.275000X0.200000X-0.275000X-0.200000X0.275000X-0.200000X0.275000X0.200000X0*%
%ADD13RoundRect,0.218750X-0.112544X0.317568X-0.331294X-0.061318X0.112544X-0.317568X0.331294X0.061318X0*%
%ADD14RoundRect,0.218750X0.218750X0.256250X-0.218750X0.256250X-0.218750X-0.256250X0.218750X-0.256250X0*%
%ADD15RoundRect,0.218750X0.331294X-0.061318X0.112544X0.317568X-0.331294X0.061318X-0.112544X-0.317568X0*%
%ADD16RoundRect,0.218750X-0.331294X0.061318X-0.112544X-0.317568X0.331294X-0.061318X0.112544X0.317568X0*%
%ADD17C,1.500000*%
%ADD18RoundRect,0.218750X-0.256250X0.218750X-0.256250X-0.218750X0.256250X-0.218750X0.256250X0.218750X0*%
%ADD19RoundRect,0.225000X-0.225000X-0.250000X0.225000X-0.250000X0.225000X0.250000X-0.225000X0.250000X0*%
%ADD20RoundRect,0.218750X0.256250X-0.218750X0.256250X0.218750X-0.256250X0.218750X-0.256250X-0.218750X0*%
%ADD21RoundRect,0.062500X-0.350000X-0.062500X0.350000X-0.062500X0.350000X0.062500X-0.350000X0.062500X0*%
%ADD22RoundRect,0.062500X-0.062500X-0.350000X0.062500X-0.350000X0.062500X0.350000X-0.062500X0.350000X0*%
%ADD23R,2.600000X2.600000*%
%ADD24RoundRect,0.225000X0.250000X-0.225000X0.250000X0.225000X-0.250000X0.225000X-0.250000X-0.225000X0*%
%ADD25RoundRect,0.218750X-0.218750X-0.256250X0.218750X-0.256250X0.218750X0.256250X-0.218750X0.256250X0*%
%ADD26R,1.800000X1.000000*%
%ADD27RoundRect,0.218750X0.112544X-0.317568X0.331294X0.061318X-0.112544X0.317568X-0.331294X-0.061318X0*%
%ADD28RoundRect,0.218750X-0.061318X-0.331294X0.317568X-0.112544X0.061318X0.331294X-0.317568X0.112544X0*%
%ADD29RoundRect,0.218750X0.061318X0.331294X-0.317568X0.112544X-0.061318X-0.331294X0.317568X-0.112544X0*%
%ADD30HorizOval,0.650000X-0.129904X-0.075000X0.129904X0.075000X0*%
%ADD31HorizOval,0.650000X-0.129904X0.075000X0.129904X-0.075000X0*%
G04 APERTURE END LIST*
D10*
%TO.C,D10*%
X127628005Y-92854250D03*
X128991995Y-93641750D03*
%TD*%
D11*
%TO.C,D4*%
X152371995Y-107145750D03*
X151008005Y-106358250D03*
%TD*%
D12*
%TO.C,R3*%
X139200000Y-103875000D03*
X139200000Y-105525000D03*
%TD*%
D13*
%TO.C,D7*%
X133641750Y-111008005D03*
X132854250Y-112371995D03*
%TD*%
D14*
%TO.C,D9*%
X127287500Y-100000000D03*
X125712500Y-100000000D03*
%TD*%
D15*
%TO.C,D11*%
X133652750Y-88984995D03*
X132865250Y-87621005D03*
%TD*%
D16*
%TO.C,D5*%
X146358250Y-110908005D03*
X147145750Y-112271995D03*
%TD*%
D17*
%TO.C,TP2*%
X141300000Y-94500000D03*
%TD*%
D12*
%TO.C,R4*%
X137600000Y-103875000D03*
X137600000Y-105525000D03*
%TD*%
%TO.C,R2*%
X140800000Y-103875000D03*
X140800000Y-105525000D03*
%TD*%
D18*
%TO.C,D12*%
X140000000Y-85712500D03*
X140000000Y-87287500D03*
%TD*%
D19*
%TO.C,C2*%
X143825000Y-97100000D03*
X145375000Y-97100000D03*
%TD*%
D20*
%TO.C,D6*%
X140000000Y-114287500D03*
X140000000Y-112712500D03*
%TD*%
D21*
%TO.C,U1*%
X138062500Y-98750000D03*
X138062500Y-99250000D03*
X138062500Y-99750000D03*
X138062500Y-100250000D03*
X138062500Y-100750000D03*
X138062500Y-101250000D03*
D22*
X138750000Y-101937500D03*
X139250000Y-101937500D03*
X139750000Y-101937500D03*
X140250000Y-101937500D03*
X140750000Y-101937500D03*
X141250000Y-101937500D03*
D21*
X141937500Y-101250000D03*
X141937500Y-100750000D03*
X141937500Y-100250000D03*
X141937500Y-99750000D03*
X141937500Y-99250000D03*
X141937500Y-98750000D03*
D22*
X141250000Y-98062500D03*
X140750000Y-98062500D03*
X140250000Y-98062500D03*
X139750000Y-98062500D03*
X139250000Y-98062500D03*
X138750000Y-98062500D03*
D23*
X140000000Y-100000000D03*
%TD*%
D24*
%TO.C,C3*%
X136000000Y-100700000D03*
X136000000Y-99150000D03*
%TD*%
D12*
%TO.C,R1*%
X142400000Y-103875000D03*
X142400000Y-105525000D03*
%TD*%
D25*
%TO.C,D3*%
X152712500Y-100250000D03*
X154287500Y-100250000D03*
%TD*%
D19*
%TO.C,C1*%
X143925000Y-102700000D03*
X145475000Y-102700000D03*
%TD*%
D26*
%TO.C,Y1*%
X144300000Y-101150000D03*
X144300000Y-98650000D03*
%TD*%
D27*
%TO.C,D1*%
X146512500Y-89163990D03*
X147300000Y-87800000D03*
%TD*%
D17*
%TO.C,TP1*%
X138760000Y-94500000D03*
%TD*%
D28*
%TO.C,D8*%
X127628005Y-107145750D03*
X128991995Y-106358250D03*
%TD*%
D29*
%TO.C,D2*%
X152309995Y-92748250D03*
X150946005Y-93535750D03*
%TD*%
D30*
%TO.C,SW1*%
X152875000Y-90297853D03*
X154725000Y-93502147D03*
%TD*%
D31*
%TO.C,SW2*%
X154880885Y-106297853D03*
X153030885Y-109502147D03*
%TD*%
M02*
